<?xml version="1.0" standalone="no"?>
<!DOCTYPE svg PUBLIC "-//W3C//DTD SVG 20010904//EN"
 "http://www.w3.org/TR/2001/REC-SVG-20010904/DTD/svg10.dtd">
<svg version="1.0" xmlns="http://www.w3.org/2000/svg"
 width="300.000000pt" height="150.000000pt" viewBox="0 0 300.000000 150.000000"
 preserveAspectRatio="xMidYMid meet">
<metadata>
Created by potrace 1.10, written by Peter Selinger 2001-2011
</metadata>
<g transform="translate(0.000000,150.000000) scale(0.100000,-0.100000)"
fill="#000000" stroke="none">
<path d="M10 1476 c0 -15 53 -32 69 -21 25 15 30 -43 28 -321 l-2 -289 -38 3
c-32 3 -38 1 -35 -14 3 -15 21 -17 168 -20 192 -3 251 9 299 58 52 54 63 122
31 191 -20 42 -89 97 -124 97 -28 0 -18 -14 29 -39 82 -44 110 -133 63 -205
-22 -33 -56 -61 -64 -53 -2 2 6 23 17 47 36 74 13 160 -58 219 -26 22 -32 31
-20 31 9 0 17 5 17 10 0 6 7 10 16 10 22 0 99 83 103 111 13 95 -9 141 -82
174 -48 21 -68 23 -234 24 -153 1 -183 -1 -183 -13z m174 -28 c-4 -7 -7 -69
-5 -138 1 -69 3 -136 2 -150 -1 -149 0 -293 2 -302 1 -7 -7 -12 -18 -13 -19 0
-20 8 -25 290 -3 160 -9 298 -14 308 -7 15 -3 17 29 17 26 0 34 -3 29 -12z
m159 -7 c77 -44 102 -172 45 -233 -26 -28 -30 -29 -105 -26 l-78 3 -3 115 c-4
158 -4 158 60 158 30 0 65 -8 81 -17z m68 5 c46 -19 73 -50 66 -76 -3 -12 -1
-18 5 -14 7 5 9 -3 4 -22 -4 -16 -7 -36 -8 -44 -1 -14 -28 -60 -28 -50 -1 3
-2 30 -4 60 -3 58 -15 87 -55 133 -28 31 -26 32 20 13z m-61 -316 c37 -16 82
-85 87 -134 4 -31 -1 -54 -16 -84 -31 -61 -58 -75 -136 -70 -35 2 -67 7 -70
10 -4 3 -9 68 -12 144 -7 161 -4 167 75 153 26 -5 58 -14 72 -19z"/>
<path d="M1350 1480 c-14 -4 -44 -8 -67 -9 -31 -1 -43 -5 -43 -16 0 -10 10
-15 28 -15 51 0 52 -3 48 -186 -2 -93 -4 -224 -5 -291 l-1 -122 -30 2 c-16 1
-29 -2 -30 -8 0 -6 47 -11 116 -13 91 -2 115 0 111 10 -2 8 -18 12 -38 11 -18
-1 -37 3 -41 10 -13 20 -10 107 4 107 6 0 20 8 30 17 13 12 21 14 26 6 12 -19
46 -64 66 -86 10 -12 29 -36 42 -53 23 -29 28 -31 86 -30 39 1 63 5 66 14 4
12 0 13 -35 16 -21 1 -46 24 -110 103 -26 32 -53 63 -61 69 -11 8 -7 16 25 39
47 37 118 107 132 133 9 17 5 18 -70 19 -55 0 -79 -3 -76 -11 2 -6 18 -12 35
-14 18 -2 32 -9 32 -16 0 -18 -97 -116 -153 -154 l-47 -33 6 256 c7 276 10
263 -46 245z m20 -56 c0 -14 4 -23 10 -19 6 3 10 2 10 -4 0 -5 -6 -12 -12 -15
-10 -5 -10 -7 0 -12 6 -3 12 -10 12 -15 0 -6 -4 -8 -9 -4 -6 3 -10 -3 -10 -12
1 -10 -2 -92 -5 -183 -3 -105 -1 -169 5 -176 7 -9 7 -19 -1 -34 -6 -12 -10
-39 -9 -61 2 -21 -1 -39 -6 -39 -6 0 -10 115 -11 300 -1 248 1 300 12 300 8 0
14 -11 14 -26z m166 -469 c21 -27 41 -52 44 -55 27 -27 40 -49 31 -54 -12 -8
-142 154 -134 166 6 11 5 12 59 -57z"/>
<path d="M2135 1480 c-11 -5 -39 -9 -63 -9 -53 -1 -53 -23 -1 -31 l34 -5 5
-288 c3 -199 2 -291 -6 -298 -6 -4 -23 -7 -39 -6 -15 1 -30 -4 -32 -10 -4 -10
22 -13 106 -13 92 0 111 3 111 15 0 11 -8 14 -30 10 -25 -4 -30 -2 -36 19 -3
14 -4 160 -2 325 3 324 5 313 -47 291z m25 -330 c-1 -165 -5 -302 -10 -305 -5
-3 -9 101 -10 237 -1 134 -3 270 -5 303 -3 63 0 79 16 69 6 -3 9 -126 9 -304z"/>
<path d="M685 1199 c-42 -21 -83 -65 -90 -96 -2 -10 -8 -31 -13 -47 -4 -16 -4
-52 0 -80 5 -28 9 -57 10 -64 4 -30 99 -109 118 -97 5 3 11 1 14 -3 11 -18
103 -4 154 24 29 15 52 32 52 37 0 5 -8 6 -17 2 -28 -12 -163 -16 -163 -5 0 6
-3 9 -7 8 -5 -1 -20 6 -34 15 -28 19 -45 51 -59 111 -10 43 -22 39 170 61 8 1
39 7 67 14 l53 13 -18 30 c-16 29 -80 78 -112 86 -49 13 -88 10 -125 -9z m104
-25 c18 -14 36 -35 42 -46 14 -26 3 -34 -60 -43 -78 -13 -106 -13 -112 -3 -9
14 27 84 53 102 31 22 41 20 77 -10z m106 -72 c-8 -8 -55 47 -55 63 0 6 14 -5
31 -23 17 -19 27 -37 24 -40z m-258 -71 c-2 -107 11 -131 94 -174 49 -25 51
-27 19 -22 -19 4 -52 13 -72 22 -62 26 -85 118 -57 226 5 20 12 37 14 37 2 0
3 -40 2 -89z"/>
<path d="M1065 1210 c-11 -4 -41 -5 -67 -2 -40 4 -48 2 -48 -12 0 -12 9 -16
34 -16 l34 0 2 -168 1 -169 -29 5 c-20 3 -31 -1 -35 -12 -6 -14 8 -16 119 -16
96 0 125 3 121 13 -2 7 -22 12 -48 13 l-44 0 -5 134 c-4 120 -3 136 13 151 25
22 66 19 102 -9 27 -22 30 -22 36 -5 20 50 -10 94 -59 88 -15 -2 -30 -4 -34
-4 -3 -1 -20 -12 -36 -26 -22 -19 -33 -22 -38 -13 -4 6 -2 14 4 16 13 4 16 28
5 35 -5 3 -17 1 -28 -3z m2 -46 c13 -13 14 -21 4 -52 -8 -23 -11 -80 -9 -150
2 -72 -1 -111 -7 -109 -9 3 -17 327 -7 327 2 0 10 -7 19 -16z m163 1 c10 -12
10 -15 -4 -15 -9 0 -16 4 -16 9 0 5 -10 12 -22 14 -21 4 -20 4 3 6 15 0 32 -6
39 -14z"/>
<path d="M1792 1204 c-32 -17 -84 -71 -82 -87 0 -4 -6 -20 -15 -37 -17 -33
-19 -99 -5 -151 20 -71 106 -128 185 -123 22 1 40 3 40 4 0 1 8 3 18 5 29 6
107 46 107 56 0 5 -9 9 -20 9 -11 0 -20 -4 -20 -8 0 -5 -34 -9 -75 -9 -41 0
-75 4 -75 9 0 4 -6 8 -14 8 -13 0 -75 63 -77 78 -6 58 -4 92 5 89 7 -3 36 -1
66 4 30 5 71 11 92 13 41 5 118 27 118 34 0 12 -44 64 -70 82 -53 38 -131 48
-178 24z m81 -15 c24 -13 77 -68 77 -80 0 -4 -21 -12 -47 -18 -53 -13 -153
-22 -153 -15 0 20 53 103 72 111 30 15 26 15 51 2z m124 -85 c-9 -9 -37 15
-37 32 0 8 -4 14 -10 14 -5 0 -10 6 -10 12 0 7 14 -2 32 -19 18 -18 29 -35 25
-39z m-266 -62 c-13 -4 -15 -59 -2 -66 5 -3 12 -17 15 -32 9 -36 39 -65 94
-91 l47 -22 -40 6 c-77 11 -103 34 -132 113 -17 46 -16 82 2 106 8 10 15 28
16 39 1 11 4 4 6 -15 3 -19 0 -36 -6 -38z"/>
<path d="M2335 1204 c-16 -9 -46 -36 -65 -62 -34 -44 -35 -48 -35 -137 0 -85
2 -94 28 -129 26 -34 55 -52 97 -61 8 -2 16 -4 18 -5 8 -5 81 -2 90 4 7 4 12
5 12 1 0 -3 10 0 23 7 12 7 24 12 27 13 3 0 16 8 29 17 33 23 19 35 -24 19
-37 -13 -135 -13 -135 1 0 4 -6 8 -12 8 -18 0 -63 41 -72 65 -5 11 -12 37 -16
58 -9 45 -25 39 175 63 48 6 115 26 115 34 0 5 -25 31 -56 58 -71 64 -134 78
-199 46z m87 -15 c13 -6 36 -27 51 -47 l28 -37 -41 -12 c-34 -10 -160 -26
-160 -20 1 9 28 75 35 87 10 15 44 38 57 39 4 1 17 -4 30 -10z m98 -48 c19
-16 28 -31 22 -34 -5 -4 -22 9 -36 28 -33 42 -29 44 14 6z m-240 -90 c-16 -30
-3 -100 25 -137 15 -19 47 -44 71 -56 25 -11 43 -22 41 -24 -8 -9 -110 27
-123 43 -41 54 -52 110 -38 182 5 25 9 29 20 20 9 -8 11 -17 4 -28z"/>
<path d="M2570 1193 c0 -7 9 -13 20 -13 13 0 27 -14 42 -42 12 -24 22 -45 23
-48 4 -25 41 -110 49 -110 5 0 6 -3 3 -7 -4 -3 0 -17 8 -30 9 -13 13 -23 11
-23 -3 0 6 -24 19 -54 l24 -55 -26 -48 c-15 -26 -31 -49 -35 -51 -4 -2 -8 -10
-8 -18 0 -8 -3 -14 -7 -14 -5 0 -17 -14 -28 -31 -11 -17 -38 -40 -59 -51 -32
-16 -37 -22 -24 -29 10 -5 26 -5 41 0 14 5 27 7 30 5 16 -16 49 26 96 120 49
99 110 238 115 261 1 6 7 20 14 31 6 12 8 24 5 28 -3 3 -2 6 3 6 6 0 16 17 23
38 21 61 55 122 68 122 7 0 13 6 13 13 0 10 -21 14 -80 14 -63 1 -80 -2 -80
-13 0 -9 12 -14 35 -14 20 0 35 -5 35 -12 0 -27 -75 -244 -87 -251 -7 -4 -13
-21 -13 -37 0 -17 -4 -30 -8 -30 -9 0 -27 38 -105 223 l-46 107 32 0 c21 0 28
-3 19 -9 -11 -7 -10 -17 7 -54 12 -25 21 -49 21 -52 0 -17 63 -155 71 -155 13
0 11 34 -3 48 -7 7 -9 12 -6 12 4 0 -11 42 -33 92 -22 51 -37 98 -35 105 3 7
16 13 29 13 13 0 24 6 24 14 0 10 -22 13 -99 12 -71 -1 -98 -4 -98 -13z"/>
<path d="M110 345 l0 -335 61 0 60 0 -3 150 -3 150 93 0 92 0 0 -150 0 -150
60 0 60 0 0 335 0 335 -60 0 -60 0 0 -137 0 -138 -92 3 -93 3 3 135 3 134 -60
0 -61 0 0 -335z m89 185 c-2 -149 -2 -149 122 -150 66 0 90 4 99 15 9 11 14
54 14 133 l1 117 32 3 32 3 1 -305 0 -306 -30 0 c-17 0 -31 3 -31 8 -1 4 -3
62 -4 129 -2 159 -3 160 -122 155 -48 -2 -93 -8 -100 -14 -8 -7 -13 -51 -15
-141 l-3 -132 -25 0 -25 0 -3 303 -3 302 31 0 31 0 -2 -120z"/>
<path d="M681 452 c-39 -19 -67 -54 -77 -94 l-6 -28 56 0 c42 0 56 4 56 14 0
16 37 46 57 46 21 0 53 -38 53 -63 0 -19 -10 -26 -52 -41 -121 -42 -178 -97
-178 -170 0 -43 22 -91 45 -100 40 -15 112 -6 149 19 l36 24 0 -24 c0 -23 3
-25 53 -25 l52 0 -3 182 c-4 205 -12 236 -67 262 -44 21 -131 20 -174 -2z
m163 -22 c42 -16 50 -44 52 -205 1 -82 0 -158 -3 -167 -6 -24 -38 -23 -62 1
-17 17 -18 21 -5 40 18 25 21 116 4 136 -22 26 -62 17 -112 -26 -39 -33 -48
-47 -48 -73 0 -19 9 -41 20 -54 21 -22 29 -25 65 -23 16 1 14 -2 -9 -15 -30
-17 -90 -14 -109 5 -5 5 -13 28 -17 51 -6 33 -4 47 14 73 21 31 111 84 153 90
34 5 53 27 53 64 0 39 -37 83 -70 83 -26 0 -62 -18 -73 -36 -9 -15 -57 -20
-57 -6 0 15 25 43 50 56 30 17 118 20 154 6z m-24 -252 c-1 -56 -15 -76 -67
-92 -22 -7 -63 21 -63 43 0 28 86 99 123 101 4 0 7 -24 7 -52z"/>
<path d="M1073 451 c-42 -19 -58 -40 -73 -92 l-9 -29 54 0 c45 0 55 3 60 21
18 55 105 38 105 -20 0 -25 -6 -31 -37 -42 -63 -20 -126 -56 -157 -88 -25 -26
-30 -39 -30 -85 -1 -44 4 -59 23 -80 34 -36 112 -37 164 -2 l36 25 3 -22 c3
-19 10 -22 56 -25 l52 -3 -2 183 c-3 207 -12 238 -73 264 -47 19 -122 17 -172
-5z m166 -26 c43 -22 50 -54 48 -225 l-2 -155 -26 -3 c-31 -4 -61 40 -41 60
12 12 16 105 6 132 -7 19 -74 23 -74 4 0 -6 -3 -9 -6 -5 -12 11 -74 -58 -80
-89 -5 -24 0 -37 22 -63 18 -22 33 -31 46 -28 10 3 18 2 18 -3 0 -10 -36 -20
-72 -20 -45 0 -67 30 -64 88 1 28 7 57 14 65 11 13 55 36 172 91 30 14 42 60
24 97 -23 47 -87 54 -124 14 -22 -23 -70 -35 -70 -17 0 16 33 54 54 62 34 14
125 11 155 -5z m-31 -252 c-3 -56 -4 -59 -40 -76 -29 -14 -42 -16 -58 -7 -27
15 -26 61 3 88 22 21 76 52 90 52 4 0 7 -26 5 -57z"/>
<path d="M1443 455 c-43 -18 -63 -53 -65 -110 -1 -61 21 -90 104 -135 36 -19
72 -41 81 -49 24 -20 21 -50 -7 -62 -35 -16 -75 -3 -88 29 -7 15 -13 28 -14
30 -2 3 -85 -19 -92 -24 -9 -6 31 -65 63 -93 32 -28 42 -31 98 -31 76 0 122
24 144 77 32 79 -1 137 -113 193 -79 39 -97 65 -64 92 12 10 26 18 30 18 15 0
60 -42 60 -57 0 -8 3 -13 8 -11 4 2 24 10 45 18 20 8 37 20 37 26 0 19 -49 73
-81 89 -35 19 -104 19 -146 0z m146 -30 c33 -17 47 -45 29 -56 -8 -5 -21 0
-33 11 -31 29 -78 35 -109 15 -52 -34 -23 -96 67 -139 89 -44 109 -69 102
-132 -6 -69 -84 -109 -165 -85 -46 14 -92 68 -69 81 8 6 24 -1 46 -21 43 -37
104 -41 127 -7 36 51 12 88 -90 143 -97 52 -119 122 -56 180 21 19 37 25 75
25 26 0 61 -7 76 -15z"/>
</g>
</svg>
