<?xml version="1.0" standalone="no"?>
<!DOCTYPE svg PUBLIC "-//W3C//DTD SVG 20010904//EN"
 "http://www.w3.org/TR/2001/REC-SVG-20010904/DTD/svg10.dtd">
<svg version="1.0" xmlns="http://www.w3.org/2000/svg"
 width="300.000000pt" height="300.000000pt" viewBox="0 0 300.000000 300.000000"
 preserveAspectRatio="xMidYMid meet">
<metadata>
Created by potrace 1.10, written by Peter Selinger 2001-2011
</metadata>
<g transform="translate(0.000000,300.000000) scale(0.100000,-0.100000)"
fill="#000000" stroke="none">
<path d="M973 2143 c4 -302 6 -346 25 -413 76 -277 213 -455 438 -569 60 -30
62 -31 100 -15 73 30 203 124 262 190 108 119 187 286 217 458 10 57 14 171
15 384 l1 302 -532 0 -531 0 5 -337z m1010 308 c16 -6 17 -28 14 -346 -2 -254
-6 -349 -16 -373 -8 -19 -16 -30 -20 -25 -3 5 -19 19 -35 31 -16 12 -26 22
-22 22 4 0 -19 21 -51 47 -32 25 -87 74 -123 108 -36 35 -83 78 -105 96 -22
19 -53 46 -70 61 -39 36 -63 35 -110 -2 -21 -16 -42 -30 -47 -30 -5 0 -6 -4
-3 -10 3 -5 3 -10 -2 -10 -4 0 -31 -21 -59 -48 -29 -26 -85 -76 -125 -112 -40
-36 -89 -80 -109 -98 -19 -19 -43 -38 -53 -43 -31 -18 -39 32 -42 266 -1 121
0 194 2 163 6 -86 10 -87 218 -86 50 0 115 0 146 0 77 -1 80 8 77 178 l-3 135
-50 16 c-55 18 -305 25 -305 8 0 -5 -10 -9 -23 -9 -45 0 -56 -19 -59 -105 -3
-79 -3 -79 -8 29 -4 77 -1 114 7 126 12 17 46 18 485 18 260 0 481 -3 491 -7z
m-763 -188 l0 -128 -42 0 c-24 0 -56 -3 -73 -5 l-30 -5 -3 122 -3 122 28 7
c15 3 33 7 38 9 6 2 27 4 48 4 l37 1 0 -127z m114 121 l46 -7 0 -127 0 -128
-42 10 c-24 5 -56 7 -73 5 l-30 -5 1 122 c1 66 2 124 3 129 1 9 33 9 95 1z
m-274 -143 l0 -130 85 -3 c47 -2 123 -2 170 0 l85 3 0 130 c0 96 3 129 13 129
9 0 11 -34 9 -143 l-3 -142 -80 4 c-53 2 -84 -1 -94 -9 -12 -10 -18 -10 -29
-1 -9 8 -45 12 -96 10 l-81 -2 -2 142 c-1 107 1 141 11 141 9 0 12 -33 12
-129z m473 -182 c17 -17 121 -110 230 -207 177 -159 197 -180 191 -202 -9 -38
-46 -120 -54 -120 -3 0 -94 79 -201 175 -107 96 -196 174 -199 174 -3 1 -92
-78 -199 -174 -106 -96 -197 -175 -201 -175 -5 0 -21 32 -36 70 -24 61 -25 73
-13 84 8 7 109 98 224 202 116 104 212 192 213 196 6 12 10 10 45 -23z m84
-316 c60 -53 154 -138 187 -168 18 -16 45 -40 60 -51 l27 -22 -31 -51 c-18
-28 -36 -51 -41 -51 -5 0 -9 -6 -9 -13 0 -12 -84 -97 -95 -97 -4 0 -20 -14
-38 -30 -18 -17 -65 -47 -105 -67 -62 -31 -77 -35 -93 -25 -10 7 -24 12 -31
13 -7 0 -27 10 -44 22 -18 12 -57 39 -88 61 -31 21 -78 64 -104 95 -26 31 -49
58 -52 61 -15 15 -48 89 -41 92 14 5 78 60 145 123 35 33 77 71 92 84 16 13
55 48 87 78 l58 55 42 -40 c23 -22 56 -53 74 -69z"/>
<path d="M1736 2419 c-12 -17 -22 -21 -48 -16 -59 9 -124 -68 -132 -159 -7
-78 53 -183 104 -184 14 0 41 -10 59 -23 28 -19 39 -22 58 -13 12 6 23 14 23
18 0 4 18 11 39 14 85 14 135 115 111 227 -6 31 -16 57 -21 57 -5 0 -9 6 -9
13 -1 23 -63 53 -97 46 -26 -5 -33 -2 -42 17 -13 30 -25 30 -45 3z m42 -146
c2 -70 7 -121 12 -113 4 7 13 9 19 6 15 -10 4 -26 -17 -26 -13 0 -17 -9 -17
-35 0 -19 1 -35 2 -35 15 0 33 16 33 30 0 10 11 25 25 34 14 9 27 27 31 41 3
14 9 25 13 25 11 0 7 63 -4 76 -34 39 -46 57 -41 61 9 9 38 -6 31 -17 -3 -5 1
-10 9 -10 9 0 17 -8 18 -17 2 -33 4 -38 11 -50 5 -8 3 -13 -3 -13 -6 0 -8 -4
-5 -10 6 -10 -15 -93 -22 -86 -6 6 -53 -40 -53 -52 0 -6 -10 -14 -22 -18 -13
-4 -26 -11 -29 -15 -3 -5 -23 0 -45 11 -21 10 -35 19 -29 20 5 0 4 5 -3 12
-15 15 -16 42 -1 33 5 -4 14 -18 19 -31 14 -35 30 -29 30 11 0 28 -4 35 -20
35 -11 0 -20 7 -20 15 0 8 5 15 10 15 6 0 10 -4 10 -10 0 -5 5 -10 10 -10 7 0
10 43 9 118 -1 124 6 161 25 142 6 -6 12 -62 14 -137z m-129 73 c-13 -19 -26
-30 -30 -25 -3 6 -10 -9 -14 -33 -11 -59 -12 -81 -2 -95 5 -7 6 -17 2 -23 -3
-5 -1 -10 4 -10 6 0 11 -4 11 -10 0 -21 -21 -9 -31 18 -14 34 -19 82 -9 82 5
0 6 10 2 22 -4 15 -2 19 7 14 8 -5 12 -3 10 5 -3 27 2 37 33 68 40 39 48 32
17 -13z m225 20 c15 -13 26 -29 26 -35 0 -7 5 -9 11 -5 8 5 10 -1 7 -19 -3
-15 -1 -25 5 -24 11 2 19 -82 9 -98 -4 -5 -7 -17 -7 -25 0 -8 -9 -16 -20 -18
-17 -4 -18 -2 -6 12 7 9 10 16 6 16 -4 0 -2 7 5 15 6 8 9 19 5 25 -4 6 -1 18
7 27 7 9 8 14 2 10 -8 -4 -14 5 -18 26 -7 40 -39 77 -66 77 -20 0 -36 17 -26
27 3 3 12 0 21 -7 13 -11 14 -10 9 4 -9 22 1 20 30 -8z m-177 -3 c-9 -9 -19
-14 -23 -11 -10 10 6 28 24 28 15 0 15 -1 -1 -17z m-17 -28 c0 -6 -14 -24 -42
-56 -10 -10 -13 -19 -7 -19 8 0 8 -5 -1 -15 -7 -8 -8 -15 -3 -15 5 0 9 -8 10
-17 1 -10 4 -37 7 -60 4 -37 2 -43 -14 -43 -10 0 -22 5 -25 10 -3 6 3 10 14
10 22 0 29 26 9 32 -13 5 -20 106 -7 114 5 3 7 9 4 14 -3 5 3 13 12 19 10 6
14 11 10 11 -5 0 -5 5 -2 10 6 10 35 14 35 5z m31 -90 c-5 -53 -9 -60 -28 -63
-13 -2 -23 1 -24 7 -6 54 8 111 27 111 8 0 14 10 15 23 0 21 1 21 8 2 4 -11 5
-47 2 -80z m126 48 c9 -7 15 -31 16 -59 2 -40 -1 -49 -17 -52 -28 -6 -36 15
-36 93 1 56 3 66 12 50 6 -11 17 -25 25 -32z m-170 -175 c-3 -7 -5 -2 -5 12 0
14 2 19 5 13 2 -7 2 -19 0 -25z m238 2 c-3 -5 -16 -10 -28 -10 -18 0 -19 2 -7
10 20 13 43 13 35 0z m-225 -30 c0 -5 -9 -10 -19 -10 -11 0 -23 5 -26 10 -4 6
5 10 19 10 14 0 26 -4 26 -10z m195 0 c-3 -5 -15 -10 -26 -10 -11 0 -17 5 -14
10 3 6 15 10 26 10 11 0 17 -4 14 -10z"/>
<path d="M1758 2265 c-2 -58 0 -105 5 -105 4 0 7 47 7 105 0 58 -2 105 -4 105
-3 0 -6 -47 -8 -105z"/>
<path d="M1125 2353 c-41 -10 -41 -25 0 -17 22 5 50 8 63 7 12 0 22 3 22 8 0
9 -50 10 -85 2z"/>
<path d="M1118 2323 c-16 -2 -28 -9 -28 -14 0 -7 12 -8 33 -3 17 5 44 8 60 9
15 0 27 3 27 8 0 7 -43 7 -92 0z"/>
<path d="M1118 2293 c-16 -2 -28 -9 -28 -14 0 -6 9 -8 19 -4 10 3 39 10 62 14
41 8 42 9 9 8 -19 0 -47 -2 -62 -4z"/>
<path d="M1113 2263 c-13 -2 -23 -9 -23 -14 0 -6 9 -8 19 -4 10 3 39 10 62 14
l44 9 -40 0 c-22 -1 -50 -3 -62 -5z"/>
<path d="M1113 2233 c-13 -2 -23 -8 -23 -13 0 -5 6 -7 14 -4 8 3 36 9 62 14
48 8 48 8 9 7 -22 0 -50 -2 -62 -4z"/>
<path d="M1125 2204 l-40 -14 40 5 c22 3 50 5 63 5 13 0 20 4 17 10 -8 13 -31
12 -80 -6z"/>
<path d="M1125 2174 l-40 -14 40 5 c22 3 50 5 63 5 12 0 22 5 22 10 0 14 -37
11 -85 -6z"/>
<path d="M1250 2354 c0 -5 10 -9 23 -10 12 0 40 -4 62 -8 30 -6 37 -6 29 3
-13 14 -114 27 -114 15z"/>
<path d="M1250 2324 c0 -5 12 -9 28 -9 15 -1 43 -5 62 -9 26 -6 32 -5 24 3
-13 14 -114 27 -114 15z"/>
<path d="M1305 2286 c55 -13 75 -13 64 -1 -3 2 -32 7 -65 10 l-59 5 60 -14z"/>
<path d="M1305 2256 c33 -7 62 -12 64 -10 10 9 -11 16 -65 20 l-59 4 60 -14z"/>
<path d="M1294 2230 c26 -5 54 -11 62 -14 8 -3 14 -2 14 3 0 10 -52 21 -94 20
-24 -1 -20 -3 18 -9z"/>
<path d="M1255 2210 c-3 -6 4 -10 17 -10 13 0 41 -3 63 -5 28 -4 34 -3 20 3
-36 16 -93 23 -100 12z"/>
<path d="M1250 2180 c0 -5 10 -10 23 -10 12 0 40 -2 62 -5 l40 -5 -40 14 c-48
17 -85 20 -85 6z"/>
<path d="M1464 1752 c-25 -12 -33 -23 -38 -54 -7 -41 -1 -62 15 -53 5 4 9 -3
9 -13 0 -23 15 -30 50 -26 14 1 31 3 38 3 6 1 12 10 12 22 0 15 4 19 16 15 14
-5 15 0 9 41 -8 58 -11 63 -35 63 -10 0 -22 5 -25 10 -7 12 -11 12 -51 -8z
m46 -18 c0 -11 6 -14 22 -9 17 6 20 4 14 -10 -4 -11 0 -25 10 -36 16 -18 16
-19 -4 -19 -16 0 -22 -6 -22 -21 0 -18 -2 -19 -15 -9 -12 10 -18 10 -30 0 -13
-10 -15 -9 -15 9 0 15 -6 21 -22 21 -20 0 -20 1 -4 19 10 11 14 25 10 36 -6
14 -3 16 14 10 16 -5 22 -2 22 9 0 9 5 16 10 16 6 0 10 -7 10 -16z"/>
<path d="M1623 1629 c-26 -16 -33 -28 -33 -52 0 -41 7 -50 49 -67 26 -11 36
-11 39 -2 2 7 10 12 17 12 19 0 26 14 31 58 4 34 2 39 -28 51 -18 8 -35 16
-38 18 -3 1 -20 -7 -37 -18z m47 -15 c0 -11 6 -15 20 -11 21 5 27 -7 9 -19 -8
-4 -8 -9 0 -17 16 -16 13 -30 -4 -23 -8 3 -19 -3 -25 -12 -9 -16 -11 -16 -20
0 -6 9 -16 15 -23 12 -9 -3 -13 6 -13 30 0 23 4 32 13 29 7 -3 16 2 19 11 8
21 24 21 24 0z"/>
<path d="M1312 1598 c-6 -6 -21 -16 -34 -22 -33 -16 -39 -63 -13 -102 17 -27
26 -32 62 -32 33 0 44 4 48 19 4 10 10 19 15 19 16 0 19 30 6 60 -15 37 -68
74 -84 58z m51 -40 c16 3 17 1 8 -16 -8 -16 -7 -21 7 -27 15 -6 15 -8 -5 -15
-16 -7 -20 -14 -16 -32 6 -22 6 -23 -14 -5 -14 12 -23 15 -28 8 -10 -18 -25
-12 -25 9 0 12 -7 20 -17 20 -17 1 -17 2 -1 13 12 10 14 17 6 31 -9 16 -8 18
10 14 16 -4 23 0 28 15 6 20 7 20 18 1 6 -12 19 -18 29 -16z"/>
<path d="M1533 1516 c-28 -18 -32 -25 -27 -51 8 -40 24 -57 46 -52 10 3 18 1
18 -5 0 -6 10 -4 23 5 12 8 22 18 22 23 0 5 3 14 7 20 9 14 -2 54 -15 54 -6 0
-18 6 -26 13 -14 12 -21 11 -48 -7z m62 -26 c8 0 15 -4 15 -10 0 -5 -4 -10
-10 -10 -5 0 -10 -8 -10 -17 0 -13 -8 -18 -29 -19 -23 -1 -27 3 -24 18 3 10 0
18 -6 18 -6 0 -11 5 -11 10 0 6 7 10 15 10 9 0 18 7 22 16 5 15 7 15 15 0 5
-9 16 -16 23 -16z"/>
<path d="M1468 1368 c-23 -12 -38 -27 -38 -38 0 -11 -5 -22 -11 -25 -6 -4 -7
-14 -4 -24 4 -9 8 -23 9 -31 4 -25 67 -51 101 -42 40 11 75 74 57 102 -7 11
-12 27 -12 35 0 8 -8 15 -17 15 -9 0 -24 6 -32 14 -14 12 -21 11 -53 -6z m52
-38 c5 0 12 5 15 10 12 20 26 10 15 -10 -9 -17 -7 -22 12 -30 l23 -9 -22 -7
c-26 -7 -28 -14 -10 -33 10 -11 7 -12 -15 -7 -22 5 -27 2 -31 -16 l-4 -23 -8
23 c-8 25 -15 27 -34 10 -11 -11 -12 -8 -7 15 5 20 3 27 -9 27 -8 0 -15 5 -15
10 0 6 7 10 15 10 12 0 14 7 9 28 -5 22 -4 25 7 15 19 -18 26 -16 34 10 l8 22
4 -22 c2 -13 8 -23 13 -23z"/>
<path d="M850 1635 c-36 -32 -66 -59 -68 -60 -9 -8 105 -255 118 -255 4 0 15
9 24 19 18 19 19 19 55 -35 52 -77 173 -197 253 -250 100 -67 215 -117 268
-117 53 0 168 50 268 117 81 54 213 185 257 255 32 50 32 50 50 31 10 -11 22
-20 26 -20 9 0 82 149 105 214 13 37 13 42 -2 53 -9 7 -38 32 -64 57 -27 26
-51 46 -53 46 -2 0 -7 -19 -11 -41 l-7 -42 -22 22 c-13 11 -26 21 -29 21 -2 0
-10 -19 -17 -42 -37 -123 -147 -282 -262 -378 -65 -54 -205 -130 -239 -130
-30 0 -157 66 -222 116 -31 24 -81 72 -112 106 -59 67 -147 216 -167 286 -14
48 -19 50 -45 21 l-19 -21 -10 42 -10 42 -65 -57z m61 -12 c8 -23 6 -30 -21
-58 l-31 -32 11 -63 c6 -34 9 -64 7 -67 -3 -2 -19 33 -37 78 l-32 83 44 42
c23 24 44 43 46 44 1 0 7 -12 13 -27z m1249 -142 c-18 -45 -34 -80 -37 -78 -2
3 1 33 8 67 l12 61 -32 33 c-28 29 -31 36 -21 60 l10 28 46 -44 46 -44 -32
-83z m-1180 116 c0 -23 71 -160 115 -222 86 -121 229 -235 357 -286 47 -18 49
-18 96 0 191 75 391 281 460 474 9 26 20 46 23 45 4 -2 25 -20 48 -41 l41 -37
-41 -83 c-23 -45 -61 -109 -84 -142 -97 -135 -265 -266 -415 -324 l-79 -31
-82 32 c-206 78 -391 253 -503 475 l-36 72 43 40 c45 43 57 49 57 28z m-58
-229 c-16 -16 -18 -11 -26 47 l-6 50 21 -43 c16 -32 19 -46 11 -54z m1182 39
c-7 -46 -16 -58 -29 -37 -6 10 25 93 32 86 2 -1 0 -24 -3 -49z"/>
<path d="M940 1515 c0 -8 7 -15 15 -15 8 0 15 7 15 15 0 8 -7 15 -15 15 -8 0
-15 -7 -15 -15z"/>
<path d="M2035 1521 c-7 -12 12 -24 25 -16 11 7 4 25 -10 25 -5 0 -11 -4 -15
-9z"/>
<path d="M943 1446 c2 -6 11 -10 21 -8 17 3 23 -14 6 -20 -6 -2 -6 -9 0 -17 7
-12 12 -11 29 10 31 37 27 49 -19 47 -24 -1 -39 -6 -37 -12z"/>
<path d="M1972 1438 c-18 -18 -14 -46 7 -58 27 -14 28 -13 47 15 13 20 14 28
4 40 -15 18 -42 19 -58 3z m44 -19 c3 -6 1 -16 -4 -21 -13 -13 -45 8 -36 23 7
12 31 11 40 -2z"/>
<path d="M1050 1382 c0 -5 -11 -15 -25 -22 -13 -7 -22 -17 -19 -22 3 -5 15 -1
26 8 19 18 19 17 8 -10 -6 -16 -8 -31 -6 -33 8 -8 65 30 60 39 -3 5 -12 3 -21
-3 -12 -11 -13 -9 -8 13 4 15 2 29 -4 32 -6 4 -11 3 -11 -2z"/>
<path d="M1905 1340 c-18 -19 -17 -21 10 -46 22 -20 30 -23 36 -12 5 8 2 15
-10 20 -24 8 -34 25 -21 33 5 3 10 -1 10 -9 0 -10 9 -16 25 -16 14 0 25 5 25
10 0 6 -9 10 -20 10 -11 0 -19 5 -17 11 4 21 -19 20 -38 -1z"/>
<path d="M1102 1278 c-7 -7 -12 -20 -12 -29 0 -20 28 -45 38 -34 4 4 1 10 -5
12 -16 6 -17 29 -1 39 6 4 17 -1 24 -11 8 -10 17 -16 21 -12 8 9 -26 47 -42
47 -6 0 -16 -5 -23 -12z"/>
<path d="M1830 1251 c0 -21 28 -73 34 -62 4 6 2 20 -4 32 -11 19 -10 20 10 9
14 -8 26 -8 32 -2 6 6 -2 14 -23 21 -39 13 -49 14 -49 2z"/>
<path d="M1177 1203 c-14 -13 -6 -53 12 -63 40 -21 74 19 45 51 -17 19 -45 25
-57 12z m53 -20 c-1 -19 -19 -35 -34 -30 -21 8 -9 37 15 37 10 0 19 -3 19 -7z"/>
<path d="M1761 1191 l-23 -18 23 -25 c13 -14 30 -23 38 -20 11 4 11 6 0 12
-10 7 -10 11 1 25 11 13 11 18 -1 30 -12 12 -17 12 -38 -4z m29 -10 c0 -6 -4
-13 -10 -16 -5 -3 -10 1 -10 9 0 9 5 16 10 16 6 0 10 -4 10 -9z"/>
<path d="M1277 1118 c-10 -17 -15 -33 -11 -37 4 -3 9 0 11 7 7 19 23 14 23 -7
0 -11 5 -23 12 -27 8 -5 9 -2 5 11 -5 11 -1 22 9 30 18 13 13 30 -14 44 -14 7
-21 3 -35 -21z m38 2 c3 -5 1 -10 -4 -10 -6 0 -11 5 -11 10 0 6 2 10 4 10 3 0
8 -4 11 -10z"/>
<path d="M1693 1143 c-9 -3 -11 -14 -6 -31 6 -26 5 -26 -13 -10 -29 26 -42 9
-23 -30 10 -18 20 -29 23 -23 4 5 2 12 -4 16 -5 3 -10 11 -10 17 0 6 9 3 20
-7 19 -18 20 -17 21 6 0 19 2 20 7 7 5 -13 11 -15 22 -8 11 8 12 12 3 18 -7 4
-16 17 -20 28 -4 12 -14 19 -20 17z"/>
<path d="M1582 1081 c-11 -6 -11 -13 0 -37 16 -38 15 -37 27 -29 8 4 6 15 -4
34 -8 16 -11 31 -8 35 9 9 0 7 -15 -3z"/>
<path d="M1370 1055 c-14 -15 -18 -25 -10 -25 7 0 19 8 26 18 11 15 12 14 10
-10 -2 -16 3 -29 10 -32 10 -4 14 5 14 34 0 47 -15 52 -50 15z"/>
<path d="M1487 1030 c-6 -23 10 -37 24 -23 10 10 2 43 -11 43 -4 0 -10 -9 -13
-20z"/>
<path d="M180 799 c0 -5 4 -9 9 -9 8 0 7 -55 -3 -176 -3 -38 -2 -40 21 -36 15
3 20 8 13 12 -7 4 -10 36 -8 90 l3 83 35 -86 c19 -47 39 -87 44 -87 5 -1 24
32 41 74 17 42 34 79 38 82 4 4 7 -29 7 -74 0 -55 -4 -82 -12 -85 -7 -3 5 -5
27 -5 22 0 34 2 28 5 -18 7 -18 194 -1 211 9 9 6 12 -16 10 -29 -3 -34 -10
-92 -147 -10 -23 -13 -19 -45 59 -31 72 -38 83 -62 86 -15 1 -27 -2 -27 -7z"/>
<path d="M503 790 c-35 -21 -63 -66 -63 -102 0 -36 37 -88 75 -104 44 -18 59
-18 101 2 87 42 85 174 -3 210 -44 19 -72 17 -110 -6z m104 -15 c47 -33 47
-137 0 -170 -87 -61 -174 88 -97 165 24 24 67 26 97 5z"/>
<path d="M705 692 l0 -118 23 4 c15 3 19 7 12 12 -7 4 -10 35 -8 89 l3 82 70
-90 c39 -49 73 -90 78 -90 4 -1 7 45 7 102 0 67 4 107 12 115 9 9 4 12 -23 12
-21 0 -29 -3 -21 -9 9 -5 12 -29 10 -79 l-3 -71 -62 80 c-89 113 -98 109 -98
-39z"/>
<path d="M1000 785 c-29 -77 -74 -181 -83 -192 -7 -10 -4 -13 12 -13 12 0 20
3 18 8 -3 4 -1 17 3 28 7 17 19 23 54 25 42 4 47 2 55 -23 5 -14 7 -29 4 -32
-4 -3 8 -6 27 -6 26 0 30 3 21 13 -6 7 -29 58 -52 113 -22 54 -43 101 -45 103
-2 2 -8 -9 -14 -24z m25 -82 c8 -20 13 -38 11 -40 -2 -3 -18 -3 -34 -1 l-30 3
15 38 c8 20 17 37 19 37 2 0 11 -16 19 -37z"/>
<path d="M1150 790 c-39 -39 -23 -78 48 -114 59 -30 35 -101 -27 -81 -11 3
-23 15 -26 26 -10 29 -24 23 -16 -8 15 -58 120 -49 135 11 9 36 -7 60 -56 88
-33 18 -43 29 -43 48 0 21 5 25 30 25 21 0 33 -7 42 -25 l13 -25 0 31 c0 24
-5 33 -22 38 -39 10 -57 7 -78 -14z"/>
<path d="M1300 795 c7 -9 10 -51 8 -114 l-3 -101 25 0 c24 0 25 2 22 53 l-4
53 56 2 56 1 0 -48 c0 -30 -5 -51 -12 -54 -7 -3 5 -5 27 -5 22 0 34 2 28 5
-17 6 -18 194 -2 210 8 8 1 11 -26 11 -27 0 -34 -3 -26 -11 6 -6 11 -30 11
-54 l0 -43 -56 0 -56 0 4 53 3 53 -33 1 c-26 1 -31 -2 -22 -12z"/>
<path d="M1589 806 c-2 -3 -2 -48 1 -101 4 -86 8 -99 29 -116 33 -27 86 -25
116 6 23 22 25 32 25 120 0 57 -4 95 -10 95 -6 0 -10 -38 -10 -93 0 -105 -11
-127 -67 -127 -50 0 -63 25 -63 123 0 74 -7 106 -21 93z"/>
<path d="M2628 794 c-5 -4 -8 -18 -8 -30 0 -13 -7 -24 -17 -27 -17 -4 -17 -5
0 -6 14 -1 17 -11 17 -71 0 -64 2 -71 23 -79 12 -5 26 -6 31 -3 5 3 0 9 -12
13 -20 7 -22 16 -22 74 0 57 2 65 19 65 26 0 85 -143 70 -171 -5 -10 -16 -19
-24 -19 -8 0 -15 -4 -15 -10 0 -14 36 -12 47 3 16 21 86 208 80 213 -7 8 -32
-41 -47 -93 -7 -24 -16 -43 -19 -43 -4 0 -18 29 -31 65 -22 58 -27 65 -52 65
-23 0 -27 5 -30 31 -2 17 -6 27 -10 23z"/>
<path d="M1832 734 c-12 -8 -22 -10 -22 -5 0 6 -3 11 -7 11 -10 0 -10 -157 0
-166 4 -4 7 20 7 54 0 66 20 102 58 102 31 0 42 -22 42 -87 0 -35 4 -63 10
-63 6 0 10 28 10 65 0 52 -4 69 -20 85 -24 24 -48 25 -78 4z"/>
<path d="M2175 728 c-55 -47 -23 -158 45 -158 28 0 70 37 70 61 -1 8 -9 3 -21
-13 -26 -35 -71 -38 -93 -6 -26 36 -21 51 14 43 17 -4 48 -4 69 0 34 6 37 9
33 31 -5 28 -46 64 -73 64 -10 0 -30 -10 -44 -22z m79 -14 c31 -31 20 -44 -39
-44 -55 0 -55 0 -44 23 21 40 56 49 83 21z"/>
<path d="M2322 660 c1 -52 3 -75 5 -50 5 74 12 90 46 110 25 16 28 20 12 20
-11 0 -27 -5 -35 -10 -11 -7 -17 -5 -22 8 -4 9 -6 -26 -6 -78z"/>
<path d="M2419 731 c-36 -29 -15 -65 46 -80 39 -10 46 -15 43 -34 -4 -32 -69
-32 -83 1 -12 27 -25 29 -25 2 0 -53 113 -66 126 -15 10 38 -1 51 -50 64 -51
12 -63 25 -46 46 18 21 58 18 72 -5 14 -21 28 -27 28 -10 0 19 -40 50 -64 50
-13 0 -34 -8 -47 -19z"/>
<path d="M1960 660 c0 -47 4 -80 10 -80 6 0 10 33 10 80 0 47 -4 80 -10 80 -6
0 -10 -33 -10 -80z"/>
<path d="M2024 660 c20 -51 36 -79 45 -77 14 2 75 147 66 156 -9 9 -22 -13
-40 -69 -18 -56 -35 -86 -35 -61 0 28 -43 131 -55 131 -8 0 -1 -27 19 -80z"/>
<path d="M2560 660 c0 -47 4 -80 10 -80 6 0 10 33 10 80 0 47 -4 80 -10 80 -6
0 -10 -33 -10 -80z"/>
</g>
</svg>
