<?xml version="1.0" standalone="no"?>
<!DOCTYPE svg PUBLIC "-//W3C//DTD SVG 20010904//EN"
 "http://www.w3.org/TR/2001/REC-SVG-20010904/DTD/svg10.dtd">
<svg version="1.0" xmlns="http://www.w3.org/2000/svg"
 width="300.000000pt" height="82.000000pt" viewBox="0 0 300.000000 82.000000"
 preserveAspectRatio="xMidYMid meet">
<metadata>
Created by potrace 1.10, written by Peter Selinger 2001-2011
</metadata>
<g transform="translate(0.000000,82.000000) scale(0.100000,-0.100000)"
fill="#000000" stroke="none">
<path d="M1070 498 c-40 -101 -90 -222 -111 -270 l-38 -88 43 0 42 0 94 233
c51 127 102 249 112 270 l18 37 -43 0 -43 0 -74 -182z m105 135 c-5 -29 -136
-347 -149 -362 -6 -8 -10 -17 -9 -20 5 -11 -18 -69 -32 -81 -11 -9 -13 -7 -10
12 2 22 6 32 36 103 6 17 20 50 29 75 22 57 110 273 117 283 8 14 22 7 18 -10z"/>
<path d="M140 605 l0 -45 63 0 62 0 -3 -180 -3 -180 61 0 62 0 -4 180 -3 180
65 0 65 0 0 45 0 45 -182 0 -183 0 0 -45z m330 9 c0 -8 0 -17 0 -21 0 -4 -20
-8 -45 -8 -71 -2 -74 -8 -77 -190 l-3 -160 -27 -3 -28 -3 0 163 c0 114 -4 168
-12 176 -7 7 -33 12 -59 12 -47 0 -61 11 -51 37 7 20 302 16 302 -3z"/>
<path d="M542 488 c3 -149 5 -167 27 -204 59 -104 217 -123 310 -38 51 45 61
89 61 263 l0 141 -57 0 -58 0 0 -156 0 -156 -28 -24 c-35 -30 -78 -31 -112 -1
l-27 22 1 158 2 157 -62 0 -61 0 4 -162z m85 2 c3 -149 5 -159 38 -192 32 -32
68 -39 113 -24 60 21 72 58 72 214 l0 133 28 -3 27 -3 3 -140 c4 -158 -3 -180
-64 -227 -31 -24 -42 -26 -108 -24 -57 2 -80 8 -105 25 -54 39 -61 64 -61 226
l0 146 28 -3 27 -3 2 -125z"/>
<path d="M1636 599 l2 -52 36 -1 c23 -1 36 4 36 12 0 6 -11 12 -25 12 -14 0
-25 5 -25 10 0 6 12 10 26 10 14 0 23 4 19 10 -3 6 -15 10 -26 10 -10 0 -19 5
-19 10 0 6 11 10 25 10 14 0 25 5 25 10 0 6 -17 10 -37 10 l-38 0 1 -51z"/>
<path d="M1730 595 c0 -30 5 -55 10 -55 6 0 10 25 10 55 0 30 -4 55 -10 55 -5
0 -10 -25 -10 -55z"/>
<path d="M1776 598 c2 -61 24 -80 24 -21 l0 38 22 -37 c32 -55 48 -49 48 17 0
41 -4 55 -14 55 -11 0 -13 -9 -10 -37 l5 -38 -22 38 c-34 55 -54 50 -53 -15z"/>
<path d="M1890 599 l0 -50 42 3 c36 3 44 7 52 30 13 37 -14 68 -61 68 l-33 0
0 -51z m65 1 c0 -16 -6 -26 -17 -28 -14 -3 -18 3 -18 28 0 25 4 31 18 28 11
-2 17 -12 17 -28z"/>
<path d="M2008 595 c4 -54 22 -79 22 -30 0 18 5 25 20 25 15 0 20 -7 20 -26 0
-49 25 -19 28 34 2 42 0 52 -12 52 -9 0 -16 -9 -16 -20 0 -13 -7 -20 -20 -20
-13 0 -20 7 -20 20 0 11 -6 20 -12 20 -9 0 -12 -16 -10 -55z"/>
<path d="M2125 626 c-32 -48 22 -104 73 -77 29 16 37 48 18 76 -22 34 -70 34
-91 1z m70 -26 c0 -18 -6 -26 -23 -28 -27 -4 -40 22 -22 44 19 22 45 13 45
-16z"/>
<path d="M2230 648 c0 -16 40 -103 48 -106 10 -3 30 33 46 86 5 16 3 22 -8 22
-9 0 -18 -13 -22 -35 -3 -19 -10 -35 -14 -35 -4 0 -11 16 -14 35 -4 21 -13 35
-21 35 -8 0 -15 -1 -15 -2z"/>
<path d="M2342 598 c3 -52 3 -52 37 -52 19 0 37 6 39 12 2 7 -7 12 -22 12 -14
0 -26 5 -26 10 0 6 9 10 20 10 11 0 20 5 20 10 0 6 -9 10 -20 10 -11 0 -20 5
-20 10 0 6 9 10 20 10 11 0 20 5 20 10 0 6 -16 10 -36 10 l-35 0 3 -52z"/>
<path d="M2432 598 c2 -33 8 -53 17 -56 10 -3 12 4 9 32 -5 45 4 46 25 1 26
-55 47 -46 47 20 0 44 -3 55 -16 55 -13 0 -15 -7 -9 -36 7 -42 -6 -39 -25 6
-8 19 -20 30 -32 30 -17 0 -19 -6 -16 -52z"/>
<path d="M1289 520 c-100 -30 -148 -145 -99 -239 19 -38 62 -72 108 -86 40
-12 108 4 153 37 l42 30 -39 18 c-33 14 -42 15 -59 3 -11 -7 -38 -13 -60 -13
-33 0 -47 6 -70 30 l-29 30 132 0 132 0 0 30 c0 67 -52 136 -119 159 -38 12
-55 13 -92 1z m128 -47 c28 -18 53 -62 53 -93 0 -19 -5 -20 -102 -18 -92 2
-95 2 -28 5 69 4 100 14 100 33 0 21 -54 70 -84 75 -43 9 -97 -14 -115 -48
-13 -24 -12 -29 5 -48 17 -19 18 -21 1 -30 -24 -14 -21 -40 8 -71 30 -33 72
-43 122 -29 47 13 53 13 53 2 0 -12 -55 -28 -100 -30 -39 -1 -91 27 -114 61
-18 28 -29 105 -15 113 5 4 7 10 4 15 -8 13 36 61 69 76 37 16 109 9 143 -13z
m-23 -44 c14 -11 26 -23 26 -27 0 -4 -38 -7 -85 -7 -47 0 -85 3 -85 7 0 16 56
48 85 48 18 0 44 -9 59 -21z"/>
<path d="M1638 438 c5 -49 17 -68 42 -68 25 0 36 18 43 68 4 32 2 42 -9 42
-10 0 -14 -12 -14 -40 0 -33 -3 -40 -20 -40 -17 0 -20 7 -20 40 0 26 -5 40
-13 40 -9 0 -11 -13 -9 -42z"/>
<path d="M1750 425 c0 -30 5 -55 10 -55 6 0 10 17 10 38 l0 37 22 -37 c32 -55
48 -49 48 17 0 41 -4 55 -14 55 -11 0 -13 -9 -10 -37 l5 -38 -22 38 c-33 54
-49 48 -49 -18z"/>
<path d="M1860 425 c0 -42 3 -55 15 -55 12 0 15 13 15 55 0 42 -3 55 -15 55
-12 0 -15 -13 -15 -55z"/>
<path d="M1900 478 c0 -16 40 -103 49 -106 10 -3 29 31 45 86 6 16 3 22 -8 22
-9 0 -18 -13 -22 -35 -7 -40 -19 -38 -27 5 -4 18 -13 30 -22 30 -8 0 -15 -1
-15 -2z"/>
<path d="M2012 428 l3 -53 38 -3 c28 -2 37 0 37 12 0 10 -9 16 -25 16 -14 0
-25 5 -25 10 0 6 9 10 20 10 11 0 20 5 20 10 0 6 -9 10 -20 10 -11 0 -20 5
-20 10 0 6 11 10 25 10 14 0 25 5 25 10 0 6 -18 10 -41 10 l-40 0 3 -52z"/>
<path d="M2106 428 c2 -56 20 -77 26 -31 l4 28 12 -27 c6 -16 18 -28 27 -28
19 0 19 9 0 30 -14 15 -14 19 0 30 24 20 1 50 -38 50 l-32 0 1 -52z m52 20
c-6 -18 -28 -21 -28 -4 0 9 7 16 16 16 9 0 14 -5 12 -12z"/>
<path d="M2213 473 c-23 -9 -14 -43 13 -53 29 -11 24 -31 -6 -23 -25 7 -27
-14 -1 -22 28 -9 51 5 51 30 0 15 -8 26 -20 30 -24 8 -27 27 -4 23 10 -2 19 3
21 10 5 12 -29 16 -54 5z"/>
<path d="M2290 425 c0 -42 3 -55 15 -55 12 0 15 13 15 55 0 42 -3 55 -15 55
-12 0 -15 -13 -15 -55z"/>
<path d="M2330 470 c0 -5 7 -10 15 -10 11 0 15 -12 15 -46 0 -32 4 -44 13 -41
8 2 11 18 9 45 -3 33 0 42 12 42 9 0 16 5 16 10 0 6 -18 10 -40 10 -22 0 -40
-4 -40 -10z"/>
<path d="M2439 446 c12 -18 21 -43 21 -55 0 -11 5 -21 10 -21 6 0 10 11 10 24
0 13 9 35 20 49 24 30 25 37 5 37 -9 0 -19 -10 -24 -22 l-8 -22 -12 22 c-6 12
-19 22 -27 22 -13 0 -12 -6 5 -34z"/>
<path d="M2582 468 c-30 -30 -3 -98 39 -98 24 0 59 34 59 58 0 41 -69 69 -98
40z m63 -38 c0 -18 -6 -26 -21 -28 -26 -4 -40 24 -23 45 18 21 44 11 44 -17z"/>
<path d="M2696 428 c2 -51 24 -84 24 -35 0 20 4 24 20 20 14 -4 20 0 20 12 0
12 -6 16 -20 12 -14 -3 -20 0 -20 10 0 10 6 14 20 10 13 -3 20 0 20 9 0 9 -11
14 -32 14 l-33 0 1 -52z"/>
<path d="M1633 298 c2 -7 11 -12 19 -10 13 2 15 -6 10 -43 -4 -37 -2 -45 12
-45 12 0 16 10 16 46 0 37 3 45 15 40 9 -3 15 0 15 9 0 11 -12 15 -46 15 -32
0 -44 -4 -41 -12z"/>
<path d="M1730 254 l0 -55 35 3 c41 3 48 21 10 26 -29 4 -24 22 6 22 10 0 19
5 19 10 0 6 -12 10 -26 10 -15 0 -23 4 -18 11 3 6 15 9 25 6 12 -3 19 0 19 9
0 9 -12 14 -35 14 l-35 0 0 -56z"/>
<path d="M1838 299 c-11 -6 -18 -22 -18 -39 0 -47 42 -74 79 -51 20 13 5 29
-22 24 -17 -3 -26 1 -31 12 -8 22 10 45 32 42 10 -1 18 3 20 8 4 14 -39 17
-60 4z"/>
<path d="M1920 255 c0 -42 3 -55 15 -55 9 0 15 9 15 25 0 18 5 25 20 25 15 0
20 -7 20 -26 0 -14 5 -24 11 -22 16 5 18 108 2 108 -7 0 -13 -9 -13 -20 0 -13
-7 -20 -20 -20 -13 0 -20 7 -20 20 0 11 -7 20 -15 20 -12 0 -15 -13 -15 -55z"/>
<path d="M2040 255 c0 -30 5 -55 10 -55 6 0 10 17 10 38 l0 37 22 -37 c32 -55
48 -49 48 17 0 38 -4 55 -13 55 -9 0 -12 -12 -9 -37 l3 -38 -22 38 c-33 54
-49 48 -49 -18z"/>
<path d="M2166 294 c-21 -21 -20 -57 2 -77 24 -22 55 -21 75 1 34 37 11 92
-38 92 -13 0 -31 -7 -39 -16z m62 -37 c3 -23 0 -27 -22 -27 -21 0 -26 5 -26
23 0 13 3 27 7 31 15 14 38 0 41 -27z"/>
<path d="M2280 254 l0 -55 33 3 c37 3 43 21 8 26 -21 3 -23 7 -17 43 5 31 3
39 -9 39 -12 0 -15 -13 -15 -56z"/>
<path d="M2366 294 c-33 -33 -7 -94 41 -94 46 0 73 79 34 100 -28 14 -57 12
-75 -6z m62 -21 c13 -26 4 -43 -24 -43 -18 0 -24 5 -24 23 0 40 32 52 48 20z"/>
<path d="M2492 298 c-20 -20 -15 -76 9 -88 36 -20 64 -9 67 28 3 27 0 32 -17
32 -12 0 -21 -7 -21 -16 0 -8 5 -12 10 -9 6 3 10 -1 10 -9 0 -21 -24 -20 -41
0 -17 20 0 49 30 49 11 0 22 5 23 10 4 15 -55 18 -70 3z"/>
<path d="M2599 276 c12 -18 21 -43 21 -55 0 -11 5 -21 10 -21 6 0 10 11 10 24
0 13 9 35 20 49 24 30 25 37 5 37 -9 0 -19 -10 -24 -22 l-8 -22 -12 22 c-6 12
-19 22 -27 22 -13 0 -12 -6 5 -34z"/>
</g>
</svg>
