<?xml version="1.0" standalone="no"?>
<!DOCTYPE svg PUBLIC "-//W3C//DTD SVG 20010904//EN"
 "http://www.w3.org/TR/2001/REC-SVG-20010904/DTD/svg10.dtd">
<svg version="1.0" xmlns="http://www.w3.org/2000/svg"
 width="300.000000pt" height="300.000000pt" viewBox="0 0 300.000000 300.000000"
 preserveAspectRatio="xMidYMid meet">
<metadata>
Created by potrace 1.10, written by Peter Selinger 2001-2011
</metadata>
<g transform="translate(0.000000,300.000000) scale(0.100000,-0.100000)"
fill="#000000" stroke="none">
<path d="M1005 2636 c-44 -59 -50 -64 -73 -55 -33 13 -38 5 -19 -24 15 -24 14
-27 -35 -91 l-51 -67 25 -27 c54 -57 59 -140 23 -362 -20 -124 -19 -275 1
-354 22 -87 70 -172 135 -239 l55 -58 -31 -19 c-41 -25 -111 -50 -141 -50 -23
0 -24 2 -24 88 0 104 -9 120 -78 150 -46 20 -150 42 -200 42 -20 0 -23 -4 -21
-32 4 -62 -1 -85 -26 -122 -14 -20 -25 -38 -25 -39 0 -2 15 -1 34 1 19 2 60
-3 91 -13 54 -15 57 -18 51 -43 -32 -152 -32 -153 -4 -177 37 -32 145 -49 223
-36 87 13 151 41 249 105 l87 56 85 -39 c46 -22 103 -54 127 -71 l44 -31 55
38 c30 21 86 51 125 67 l70 28 87 -57 c101 -66 176 -95 263 -103 76 -6 174 13
202 40 25 22 25 14 6 112 -9 44 -12 83 -8 86 17 15 79 30 125 30 l49 0 -23 30
c-16 22 -23 49 -26 95 l-4 65 -37 0 c-93 0 -192 -30 -238 -73 -21 -18 -23 -30
-23 -114 0 -84 -2 -93 -19 -93 -26 0 -98 26 -137 51 l-33 20 41 37 c71 63 126
147 154 235 34 105 35 224 5 431 -29 194 -22 255 35 317 21 22 22 28 11 43
-15 20 -4 50 41 113 24 34 28 53 11 53 -5 0 -8 -4 -4 -9 10 -17 -53 -77 -92
-88 -65 -19 -117 -24 -143 -15 -20 8 -8 14 91 46 110 35 142 49 139 57 -1 2 4
17 10 33 6 16 9 31 6 33 -2 3 -44 -9 -93 -26 l-88 -31 -20 23 c-11 13 -32 39
-46 58 l-27 34 -22 -20 c-29 -26 -127 -27 -305 -2 -137 20 -184 18 -354 -10
-114 -19 -183 -14 -214 16 l-23 21 -49 -64z m130 4 c23 -5 78 -1 158 11 152
23 269 24 406 2 136 -23 208 -22 243 1 32 21 34 20 76 -37 32 -45 32 -46 11
-52 -16 -5 -27 0 -43 20 -19 23 -24 25 -49 16 -39 -15 -111 -14 -199 3 -152
29 -239 30 -417 6 -155 -22 -171 -22 -214 -8 l-46 15 -21 -29 c-19 -26 -48
-36 -63 -22 -3 3 13 30 36 59 39 51 42 52 64 38 12 -8 38 -19 58 -23z m1095
-30 c0 -23 -44 -50 -120 -74 -44 -14 -94 -33 -109 -41 -22 -11 -37 -12 -66 -4
-55 15 -120 3 -202 -38 -74 -36 -90 -53 -52 -53 16 0 20 -5 17 -18 -4 -15 -1
-18 18 -14 26 5 31 -7 13 -25 -9 -9 -7 -10 10 -6 12 3 21 1 21 -6 0 -6 -5 -11
-12 -11 -6 0 -3 -7 8 -16 18 -14 18 -15 -6 -9 -14 4 -47 15 -75 24 -27 10 -55
16 -62 14 -6 -2 -3 12 8 34 10 20 19 44 19 53 0 21 35 59 66 70 12 5 69 14
125 20 73 7 137 22 223 51 67 23 128 45 136 50 21 12 40 11 40 -1z m-515 -27
c44 -9 117 -15 163 -14 45 1 82 -2 82 -7 0 -10 -138 -33 -262 -45 -9 -1 -15
-4 -13 -7 1 -3 -12 -14 -30 -26 -27 -18 -34 -19 -50 -8 -11 8 -15 14 -9 14 18
1 -71 39 -91 40 -26 0 -65 -27 -65 -45 0 -8 -5 -26 -12 -40 l-12 -26 -10 32
c-18 53 -54 71 -153 80 -85 8 -182 24 -191 33 -2 3 -1 9 2 15 5 7 15 7 32 1
37 -14 103 -12 244 10 138 21 240 19 375 -7z m-715 -32 c25 -5 77 -17 115 -25
39 -9 108 -20 154 -25 48 -5 89 -15 98 -23 7 -8 20 -38 28 -67 7 -29 21 -62
31 -72 10 -11 12 -19 5 -19 -6 0 -33 -16 -61 -35 -54 -38 -77 -38 -77 1 0 17
5 24 19 24 16 0 18 3 9 13 -13 17 -4 28 17 20 11 -5 14 -2 9 9 -4 11 1 18 14
21 10 3 19 10 19 16 0 15 -32 2 -51 -21 -15 -19 -16 -19 -73 0 -57 19 -96 46
-84 58 4 3 34 -2 69 -10 34 -9 64 -15 66 -13 7 8 -53 27 -150 47 -111 24 -158
42 -204 76 -36 27 -44 49 -15 40 9 -3 37 -10 62 -15z m64 -93 c76 -22 92 -31
107 -60 9 -17 6 -18 -48 -12 -78 9 -120 30 -154 77 -36 50 -37 65 -2 38 14
-12 58 -31 97 -43z m-137 -19 l-24 -31 24 -44 c36 -63 40 -151 14 -308 -30
-183 -30 -322 1 -407 28 -75 102 -185 150 -223 32 -25 32 -26 13 -40 -11 -9
-23 -16 -26 -16 -17 -1 -121 125 -149 179 -63 125 -73 247 -40 471 32 216 25
294 -31 371 -10 13 -5 25 26 67 37 49 39 50 52 31 13 -17 11 -23 -10 -50z
m659 27 c16 -14 23 -26 16 -26 -7 0 -11 -4 -7 -9 3 -5 1 -12 -4 -15 -5 -3 -12
5 -15 19 -5 18 -15 26 -40 30 -19 4 -42 5 -53 2 -10 -3 -1 -5 19 -6 40 -1 64
-21 26 -22 l-23 0 23 -10 c13 -5 28 -7 33 -3 5 3 9 -2 9 -10 0 -18 -16 -21
-25 -6 -3 6 -14 10 -24 10 -20 0 -64 43 -54 53 3 4 1 7 -6 7 -7 0 -9 5 -6 10
3 6 11 10 16 10 6 0 7 -4 4 -10 -3 -6 1 -7 9 -4 9 3 14 10 11 14 -12 19 66
-10 91 -34z m374 4 c12 -8 10 -10 -9 -10 -13 0 -70 -16 -128 -35 -87 -29 -107
-33 -118 -22 -15 16 2 30 75 58 49 20 156 25 180 9z m213 -16 c-22 -34 -51
-44 -121 -43 -31 0 -50 3 -42 6 8 3 21 11 29 17 11 9 105 38 144 45 4 0 0 -11
-10 -25z m-659 -44 c9 0 14 -4 11 -10 -3 -6 1 -7 9 -4 12 5 16 -1 16 -20 0
-15 7 -29 15 -33 14 -5 14 -8 -2 -26 -21 -24 -80 -50 -93 -42 -14 9 -12 33 3
42 7 4 18 21 26 38 l13 30 -21 -19 c-12 -11 -22 -17 -24 -15 -24 41 -28 52
-19 61 6 6 8 18 5 27 -5 11 1 10 19 -6 13 -13 32 -23 42 -23z m516 36 c0 -14
-85 -50 -170 -71 -118 -30 -110 -29 -110 -7 0 15 21 25 98 50 82 26 182 42
182 28z m-1042 -35 c12 -11 22 -24 22 -30 0 -6 13 -20 29 -32 l30 -22 -36 -42
c-19 -24 -36 -45 -37 -47 0 -2 9 -16 21 -32 25 -32 45 -30 87 9 15 14 34 25
42 25 12 0 11 -6 -6 -30 -11 -16 -25 -32 -29 -34 -5 -3 -7 -17 -6 -31 3 -27
-4 -32 -23 -13 -9 9 -15 9 -24 0 -7 -7 -20 -12 -30 -12 -12 0 -18 -8 -18 -24
0 -14 -5 -28 -10 -31 -6 -4 0 -20 15 -39 18 -24 33 -33 55 -33 39 0 71 41 66
85 -3 26 1 31 37 47 21 10 47 30 56 46 18 33 29 35 57 14 10 -8 25 -15 31 -15
7 0 31 -17 52 -38 l40 -39 -14 -54 c-7 -30 -12 -83 -9 -119 2 -36 4 -90 3
-121 0 -30 5 -68 11 -85 7 -16 13 -54 14 -84 1 -30 6 -66 10 -80 7 -24 5 -26
-59 -38 -36 -7 -96 -27 -133 -44 -37 -18 -74 -35 -83 -39 -29 -13 -113 81
-162 179 -42 85 -42 87 -46 210 -2 88 0 123 8 118 7 -4 9 -1 5 8 -3 8 2 60 11
116 22 131 17 248 -14 308 -31 60 -12 83 37 43z m1151 -18 c-17 -19 -70 -43
-98 -43 -11 0 -33 11 -48 25 l-28 25 45 -6 c25 -3 63 -1 85 4 57 14 59 14 44
-5z m41 11 c0 -3 -11 -19 -25 -35 -50 -60 -56 -136 -25 -335 46 -300 13 -457
-131 -608 -59 -62 -67 -68 -87 -57 -21 11 -20 14 42 74 113 112 167 265 152
437 -4 41 -14 118 -22 170 -9 52 -15 128 -15 168 0 76 -2 71 69 162 22 27 42
39 42 24z m-584 -36 c-16 -22 -16 -22 -16 -1 0 12 6 23 13 26 19 7 20 0 3 -25z
m-442 1 c63 -2 146 -25 146 -41 0 -13 -59 0 -89 19 -13 8 -20 10 -17 4 5 -8
-12 -11 -53 -11 -49 0 -65 4 -88 25 l-28 24 34 -9 c19 -5 62 -10 95 -11z m840
-13 c17 -14 24 -26 18 -30 -14 -9 -62 3 -62 15 0 5 -18 0 -40 -11 -47 -24
-140 -28 -140 -6 0 9 28 21 78 34 100 26 111 26 146 -2z m84 -30 c-18 -16 -35
-22 -48 -19 -20 5 -20 6 -3 18 17 12 45 22 68 24 6 0 -2 -10 -17 -23z m-820
-10 c12 -4 22 -14 22 -23 0 -11 -6 -14 -22 -8 -47 14 -120 24 -136 18 -9 -4
-23 -13 -30 -20 -7 -7 -20 -13 -29 -13 -11 0 -14 -7 -10 -22 3 -13 1 -32 -4
-43 -8 -17 -9 -16 -5 8 3 24 1 27 -18 22 -19 -6 -20 -5 -3 8 9 8 17 19 17 26
0 6 9 11 21 11 11 0 18 4 15 9 -4 5 7 12 24 16 17 4 28 10 26 13 -5 9 103 7
132 -2z m672 -1 c-11 -14 -10 -14 14 -5 36 13 41 13 26 -5 -7 -8 -28 -17 -49
-20 -20 -3 -63 -13 -96 -22 -57 -15 -108 -14 -195 3 -19 4 -31 3 -28 -2 3 -5
2 -18 -3 -29 -5 -14 -8 -6 -8 30 -1 36 -4 46 -11 35 -6 -8 -7 -34 -4 -58 6
-42 -6 -72 -28 -72 -6 0 -6 6 1 14 10 12 5 13 -30 5 -23 -6 -45 -12 -49 -14
-4 -2 -15 2 -25 9 -29 21 -3 92 29 80 14 -5 15 -9 4 -16 -9 -6 -5 -7 12 -3 14
4 40 21 58 38 41 39 70 43 138 18 49 -19 62 -20 132 -9 42 6 86 17 97 24 26
18 30 18 15 -1z m-480 -16 c0 -16 -20 -49 -30 -49 -14 0 -81 -42 -76 -47 3 -3
21 4 41 15 l35 21 -6 -23 c-4 -17 0 -27 11 -34 14 -7 15 -13 6 -30 -6 -11 -8
-29 -4 -39 6 -17 6 -17 -10 -1 -9 9 -17 21 -17 27 0 6 -7 8 -15 5 -11 -5 -13
-2 -9 10 4 11 1 16 -11 16 -9 0 -13 5 -10 10 3 6 0 11 -7 12 -7 0 -18 2 -24 2
-6 1 -36 18 -67 37 -31 21 -60 33 -67 29 -8 -5 -3 -10 13 -14 14 -3 27 -13 31
-21 4 -11 2 -14 -6 -9 -8 5 -9 2 -5 -9 3 -10 2 -17 -3 -17 -6 0 -10 -8 -10
-17 0 -13 -3 -14 -12 -5 -8 8 -8 15 0 25 7 8 9 17 5 20 -3 4 -1 7 6 7 7 0 9 5
6 10 -3 6 -11 10 -16 10 -6 0 -8 -4 -4 -9 3 -6 -3 -14 -12 -20 -10 -6 -14 -11
-9 -11 16 0 -26 -40 -43 -40 -11 0 -9 4 7 16 12 8 22 22 22 30 0 8 4 14 9 14
5 0 8 11 5 25 -3 16 0 25 8 26 7 0 4 4 -7 9 -18 8 -17 9 8 9 15 1 54 -13 87
-29 33 -17 60 -26 60 -21 0 5 15 16 34 25 18 8 39 22 46 31 14 17 40 20 40 4z
m581 -14 c0 -6 -15 -13 -33 -16 -18 -4 -25 -7 -15 -8 9 0 17 -6 17 -12 0 -7
-18 -9 -52 -5 -29 3 -45 3 -35 0 9 -3 17 -10 17 -16 0 -11 -44 -7 -85 7 -16 6
-17 5 -5 -4 12 -10 11 -11 -9 -9 -66 8 -13 38 93 52 22 3 46 12 54 20 15 15
54 8 53 -9z m-884 -17 c-3 -8 -6 -5 -6 6 -1 11 2 17 5 13 3 -3 4 -12 1 -19z
m-17 -3 c0 -8 -4 -15 -10 -15 -5 0 -10 7 -10 15 0 8 5 15 10 15 6 0 10 -7 10
-15z m-33 -27 c-3 -7 -5 -2 -5 12 0 14 2 19 5 13 2 -7 2 -19 0 -25z m-20 -20
c-3 -7 -5 -2 -5 12 0 14 2 19 5 13 2 -7 2 -19 0 -25z m679 19 c28 1 31 -2 31
-28 0 -20 -4 -26 -11 -19 -17 17 -27 11 -16 -10 10 -19 9 -20 -13 -15 -22 6
-24 4 -20 -22 4 -25 3 -26 -10 -10 -20 24 -25 21 -19 -10 l5 -27 -26 17 c-23
15 -27 15 -27 2 0 -8 -4 -15 -10 -15 -5 0 -10 4 -10 9 0 4 -11 20 -24 34 l-24
26 21 42 20 41 51 -8 c28 -4 65 -7 82 -7z m284 -24 c0 -21 9 -94 20 -163 35
-219 24 -365 -34 -478 -27 -51 -90 -124 -100 -115 -3 4 -6 0 -6 -7 0 -13 -28
-39 -42 -40 -5 0 -8 11 -8 24 0 17 9 27 31 36 17 7 42 30 55 52 13 21 29 38
34 38 14 0 12 36 -2 52 -18 18 -68 86 -68 91 0 2 -16 22 -36 43 -35 37 -36 38
-15 48 28 12 28 56 -1 84 -27 24 -119 72 -141 72 -15 0 -79 119 -71 132 3 5
14 8 25 8 37 0 80 32 114 84 14 22 25 26 63 26 47 0 99 13 142 35 37 20 40 18
40 -22z m-850 -52 c0 -13 -20 -25 -48 -29 -15 -2 -21 1 -17 8 3 5 15 10 26 10
10 0 19 5 19 10 0 6 5 10 10 10 6 0 10 -4 10 -9z m350 -6 c6 -8 8 -19 4 -26
-4 -8 -11 -4 -21 12 l-14 24 6 -23 c6 -22 -9 -52 -26 -52 -5 0 -10 10 -10 23
-1 16 -2 18 -6 5 -6 -22 -29 -23 -37 -2 -8 20 0 33 28 44 32 13 62 12 76 -5z
m37 -3 c7 -4 33 -46 58 -93 l45 -84 -36 40 -35 40 19 -40 c26 -51 82 -128 89
-122 3 3 -8 23 -23 44 l-28 38 49 -45 c27 -25 42 -36 32 -24 -30 36 -19 35 45
-6 33 -22 66 -40 72 -41 6 0 1 -4 -11 -9 -14 -6 -23 -18 -23 -31 0 -21 0 -21
-21 2 -14 17 -19 19 -15 7 4 -15 2 -15 -27 2 -18 11 -48 20 -68 20 -42 0 -53
8 -38 27 9 10 8 13 -5 13 -13 0 -16 5 -11 20 4 14 2 20 -9 20 -8 0 -18 -4 -21
-10 -10 -16 -35 -12 -29 5 8 20 -25 32 -37 14 -5 -9 -9 11 -10 56 0 48 -3 64
-9 50 -5 -11 -9 -35 -9 -52 -1 -18 -6 -33 -12 -33 -7 0 -9 -10 -5 -25 4 -14 2
-25 -4 -25 -5 0 -10 5 -10 10 0 6 -7 10 -16 10 -11 0 -14 6 -9 21 6 19 4 20
-29 15 -40 -7 -39 -13 -14 88 9 37 10 38 45 33 27 -5 42 -1 60 13 13 10 30 17
38 14 7 -3 16 -1 20 5 3 6 0 11 -8 11 -8 0 -17 7 -21 15 -6 16 2 19 21 7z
m-497 -46 c0 -10 7 -12 23 -8 19 5 20 4 8 -11 -11 -14 -11 -18 3 -23 24 -9 19
-23 -5 -17 -19 5 -20 3 -14 -18 7 -21 6 -22 -9 -10 -13 11 -19 11 -31 1 -13
-10 -15 -9 -15 9 0 13 -6 21 -17 21 -15 0 -15 1 2 13 12 10 14 16 7 21 -7 4
-12 12 -12 19 0 8 3 8 12 -1 16 -16 28 -15 28 3 0 8 5 15 10 15 6 0 10 -6 10
-14z m368 -185 c-2 -9 3 -15 11 -13 7 2 20 -6 28 -18 16 -23 38 -27 29 -5 -3
8 -1 15 3 15 5 0 11 -7 15 -15 9 -25 24 -17 18 10 -2 15 0 25 7 25 6 0 11 -5
11 -11 0 -17 87 -125 127 -158 63 -52 50 -23 -20 45 -63 61 -80 95 -58 109 6
3 13 -10 17 -29 6 -37 19 -45 77 -51 59 -6 96 -30 155 -101 95 -114 125 -154
108 -148 -10 4 -21 -7 -35 -35 -23 -45 -51 -64 -84 -59 -31 4 -26 19 14 41 68
38 65 63 -11 122 -72 55 -80 47 -10 -10 28 -22 50 -46 50 -54 0 -18 -29 -51
-44 -51 -6 0 -24 -13 -39 -30 -34 -36 -82 -43 -72 -10 6 18 4 19 -21 10 -31
-12 -47 -3 -21 11 16 10 24 39 10 39 -4 0 -17 -12 -29 -27 -19 -25 -24 -26
-48 -15 -27 12 -34 40 -14 60 9 9 7 17 -9 34 -19 21 -122 176 -189 285 -14 23
-23 47 -20 52 10 15 47 0 44 -18z m82 14 c0 -8 -2 -15 -4 -15 -2 0 -6 7 -10
15 -3 8 -1 15 4 15 6 0 10 -7 10 -15z m57 -324 c20 -25 20 -25 1 -58 -18 -30
-24 -33 -69 -33 -59 0 -77 21 -86 101 -6 57 -4 57 35 5 36 -48 25 -15 -15 42
-28 40 -37 65 -40 105 -3 45 -2 49 8 30 7 -13 16 -23 21 -23 4 0 -3 22 -17 50
-50 99 -23 71 59 -60 46 -74 93 -146 103 -159z m291 217 c-6 -18 -28 -21 -28
-4 0 9 7 16 16 16 9 0 14 -5 12 -12z m-1106 -308 c64 -24 81 -39 76 -72 -2
-18 -15 -27 -57 -40 -30 -10 -62 -24 -71 -33 -15 -14 -21 -14 -53 0 -20 8 -54
15 -76 15 l-40 0 19 43 c11 23 20 60 20 81 l0 39 63 -6 c35 -3 88 -15 119 -27z
m1644 -23 c0 -28 8 -67 18 -84 l17 -33 -46 0 c-25 0 -61 -6 -80 -14 -27 -12
-34 -12 -39 -1 -2 7 -22 18 -43 25 -93 28 -110 41 -96 75 11 30 97 62 213 79
56 8 55 9 56 -47z m-766 -12 c69 -18 157 -61 256 -127 44 -28 97 -59 119 -69
55 -25 166 -25 222 0 l41 19 6 -21 c2 -12 8 -46 12 -75 8 -65 -3 -76 -97 -92
-119 -20 -218 7 -364 101 -124 79 -189 107 -283 121 -138 20 -238 -8 -399
-111 -144 -92 -183 -106 -303 -106 -89 0 -110 3 -140 21 -38 23 -39 26 -19
122 10 49 12 52 27 39 21 -19 86 -37 133 -37 64 0 132 28 254 105 157 99 233
124 375 124 61 1 128 -5 160 -14z m188 -17 c13 -13 16 -48 4 -48 -4 0 -18 7
-30 16 -18 13 -21 19 -11 30 14 17 21 18 37 2z m-983 -113 c0 -64 0 -65 -28
-65 -34 0 -88 22 -104 42 -17 20 7 42 62 57 30 8 70 26 70 31 0 0 0 -29 0 -65z
m1313 46 c9 -5 38 -17 65 -26 79 -28 54 -72 -50 -90 l-43 -7 0 66 c0 70 1 71
28 57z m-564 -88 l29 -6 -24 -18 c-13 -10 -32 -19 -41 -19 -10 0 -18 -4 -18
-8 0 -5 -11 -15 -25 -22 -21 -11 -27 -11 -42 2 -10 9 -38 26 -61 38 -24 12
-41 24 -38 27 20 21 130 24 220 6z m-211 -44 c34 -17 75 -40 90 -51 25 -18 30
-19 45 -5 9 9 50 31 90 51 63 29 78 33 98 24 29 -14 24 -20 -39 -43 -26 -10
-76 -37 -112 -60 -63 -42 -64 -42 -82 -23 -10 11 -62 42 -116 68 -84 41 -96
50 -80 59 27 16 38 14 106 -20z"/>
<path d="M1175 2481 c11 -4 41 -11 67 -15 26 -4 63 -18 83 -31 33 -23 35 -23
24 -4 -14 27 -60 45 -134 53 -36 3 -52 2 -40 -3z"/>
<path d="M1232 2063 c-22 -20 -40 -83 -23 -83 5 0 12 -9 16 -19 9 -31 73 -26
99 7 12 15 19 31 17 37 -2 5 -5 19 -6 30 -2 21 -37 45 -66 45 -9 0 -26 -8 -37
-17z m69 -18 c14 5 17 3 13 -9 -4 -9 -1 -23 6 -31 10 -12 9 -15 -8 -15 -16 0
-19 -5 -15 -22 4 -21 3 -21 -7 -5 -11 18 -12 18 -32 0 -21 -18 -21 -18 -16 5
5 18 2 22 -15 22 -21 1 -21 2 -4 14 10 8 15 20 11 30 -4 12 -2 15 9 11 8 -4
18 1 22 12 8 17 8 17 12 0 3 -12 10 -16 24 -12z"/>
<path d="M999 1865 c-42 -23 -45 -97 -5 -126 19 -15 69 -1 91 25 21 25 22 30
11 57 -7 17 -25 37 -40 45 -16 8 -29 14 -30 14 0 -1 -13 -7 -27 -15z m41 -21
c0 -11 6 -14 22 -8 20 6 21 5 9 -9 -11 -14 -11 -18 3 -23 24 -9 19 -23 -5 -17
-19 5 -20 3 -14 -18 7 -21 6 -22 -9 -10 -13 11 -19 11 -33 0 -15 -12 -16 -12
-10 4 5 13 1 20 -15 26 -19 7 -19 8 -4 14 14 6 15 11 6 28 -11 19 -10 20 9 9
17 -9 21 -8 21 5 0 8 5 15 10 15 6 0 10 -7 10 -16z"/>
<path d="M1246 1847 c-25 -20 -27 -26 -19 -57 8 -30 14 -35 41 -37 17 0 36 5
43 13 6 8 8 14 5 14 -4 0 -2 8 3 19 8 14 4 23 -17 44 l-27 26 -29 -22z m52
-27 c14 0 14 -2 3 -9 -8 -5 -11 -16 -8 -25 4 -9 2 -16 -3 -16 -6 0 -10 5 -10
12 0 9 -3 9 -12 0 -17 -17 -28 -15 -21 4 3 9 0 20 -8 25 -11 7 -11 9 2 9 9 0
20 8 24 18 8 16 8 16 12 0 3 -10 12 -18 21 -18z"/>
<path d="M1255 1640 c-4 -6 -10 -8 -15 -5 -11 7 -27 -15 -35 -47 -11 -42 19
-78 65 -78 47 0 73 32 64 79 -9 42 -63 77 -79 51z m47 -29 c18 9 19 9 10 -7
-8 -14 -6 -21 6 -31 15 -11 15 -12 -5 -13 -17 0 -20 -4 -15 -22 5 -21 4 -22
-11 -9 -14 11 -20 11 -34 0 -15 -13 -16 -12 -11 9 5 18 2 22 -15 22 -21 1 -21
1 -3 15 16 12 17 17 6 30 -8 9 -8 15 -2 15 6 0 14 -5 18 -12 5 -7 11 -3 17 13
l10 24 4 -22 c4 -20 7 -21 25 -12z"/>
<path d="M1480 2200 c0 -5 5 -10 11 -10 5 0 7 5 4 10 -3 6 -8 10 -11 10 -2 0
-4 -4 -4 -10z"/>
<path d="M1445 2139 c-4 -6 -5 -12 -2 -15 2 -3 7 2 10 11 7 17 1 20 -8 4z"/>
<path d="M1621 1738 c87 -118 111 -145 107 -126 -3 19 -149 207 -160 208 -5 0
19 -37 53 -82z"/>
<path d="M1466 1428 c2 -40 4 -43 33 -46 17 -2 31 1 31 7 0 6 -11 11 -25 11
-29 0 -34 16 -7 23 16 4 16 5 0 6 -28 2 -21 21 7 21 14 0 25 5 25 10 0 6 -15
10 -33 10 -33 0 -33 -1 -31 -42z"/>
<path d="M1375 1438 c3 -13 7 -33 8 -45 2 -28 17 -31 17 -3 0 23 15 27 24 5 3
-8 11 -15 18 -15 9 0 9 3 1 11 -7 7 -9 25 -6 40 5 28 4 29 -31 29 -33 0 -36
-2 -31 -22z m49 3 c3 -5 -1 -12 -10 -15 -20 -8 -29 -1 -19 13 8 13 22 14 29 2z"/>
<path d="M1547 1453 c-13 -12 -7 -23 18 -35 14 -6 25 -16 25 -21 0 -5 -11 -7
-25 -5 -14 3 -25 1 -25 -3 0 -5 14 -9 30 -9 24 0 30 4 30 21 0 12 -8 23 -20
26 -11 3 -20 10 -20 15 0 6 11 7 25 4 14 -4 25 -2 25 4 0 11 -53 14 -63 3z"/>
<path d="M1305 1430 c-15 -17 -16 -24 -7 -46 9 -19 18 -25 39 -22 14 2 29 10
31 18 5 13 3 13 -11 1 -14 -11 -20 -11 -32 -1 -21 18 -19 41 5 47 11 3 20 9
20 14 0 16 -26 9 -45 -11z"/>
<path d="M1632 1438 c-19 -19 -15 -68 6 -74 9 -3 25 -9 34 -14 11 -6 18 -5 20
2 3 7 12 9 22 5 9 -4 15 -10 12 -15 -2 -4 4 -13 14 -20 17 -10 22 -8 35 16
l16 27 -5 -33 -6 -33 33 23 32 23 -17 -27 c-20 -30 -22 -38 -10 -38 11 0 46
69 39 76 -4 4 -18 -1 -33 -11 l-26 -17 7 31 c9 40 -3 39 -38 -1 l-28 -33 6 48
c3 26 3 47 -1 47 -5 0 -23 -14 -41 -32 -18 -18 -33 -27 -33 -20 0 7 -3 11 -7
11 -25 -4 -34 3 -31 24 2 17 9 22 31 20 24 -2 27 0 17 13 -15 17 -32 18 -48 2z
m98 -53 c0 -8 -4 -15 -10 -15 -5 0 -7 7 -4 15 4 8 8 15 10 15 2 0 4 -7 4 -15z"/>
<path d="M1204 1350 c4 -27 3 -50 -2 -50 -14 0 -31 22 -26 35 8 21 -15 28 -46
15 l-29 -12 26 -39 c14 -21 30 -36 35 -33 6 4 6 10 -1 17 -19 19 -12 27 14 15
27 -12 50 -1 50 25 0 7 13 11 29 10 l29 -2 -33 34 c-19 19 -38 35 -43 35 -6 0
-7 -21 -3 -50z m31 10 c3 -5 2 -10 -4 -10 -5 0 -13 5 -16 10 -3 6 -2 10 4 10
5 0 13 -4 16 -10z m-75 -30 c0 -5 -7 -10 -15 -10 -8 0 -15 5 -15 10 0 6 7 10
15 10 8 0 15 -4 15 -10z"/>
<path d="M1065 1308 c-11 -6 -22 -12 -24 -14 -2 -2 7 -19 19 -38 l21 -36 32
17 c18 9 27 18 19 21 -7 2 -19 -1 -26 -8 -9 -7 -16 -7 -20 -1 -4 5 -2 12 4 16
5 3 10 11 10 17 0 7 -5 6 -14 -1 -9 -8 -16 -8 -20 -2 -4 5 2 14 11 20 10 5 16
12 13 14 -3 3 -14 1 -25 -5z"/>
<path d="M1888 1281 l-25 -38 29 -16 c15 -9 28 -12 28 -7 0 5 -8 13 -17 19
-17 9 -16 12 4 40 13 16 19 32 14 35 -4 3 -19 -12 -33 -33z"/>
<path d="M988 1267 c-31 -12 -39 -32 -10 -23 14 5 21 -2 31 -29 7 -19 17 -33
22 -30 5 4 2 19 -7 36 -12 24 -13 34 -3 45 13 16 5 16 -33 1z"/>
<path d="M1955 1235 l-27 -36 26 7 c22 5 26 3 26 -15 0 -12 5 -21 10 -21 6 0
10 23 10 50 0 28 -4 50 -9 50 -5 0 -21 -16 -36 -35z m31 -12 c-10 -10 -19 5
-10 18 6 11 8 11 12 0 2 -7 1 -15 -2 -18z"/>
<path d="M732 1219 c-1 -16 -3 -35 -5 -41 -1 -6 3 -12 10 -15 7 -3 9 3 6 18
-5 19 -3 21 15 17 29 -8 49 16 32 37 -7 8 -22 15 -34 15 -17 0 -22 -7 -24 -31z
m48 0 c0 -5 -7 -9 -15 -9 -8 0 -15 7 -15 15 0 9 6 12 15 9 8 -4 15 -10 15 -15z"/>
<path d="M913 1243 c-25 -10 -14 -42 15 -45 29 -3 29 -24 0 -22 -10 0 -18 -3
-18 -8 0 -5 12 -8 28 -6 19 2 27 9 27 23 0 14 -8 21 -27 23 -32 4 -38 22 -8
22 11 0 20 5 20 10 0 10 -16 12 -37 3z"/>
<path d="M2024 1216 c-7 -42 0 -56 31 -56 15 0 26 7 29 20 3 11 9 29 12 40 3
11 1 20 -4 20 -5 0 -13 -15 -18 -32 -6 -18 -16 -33 -24 -33 -16 0 -18 16 -6
53 4 13 3 22 -3 22 -5 0 -13 -15 -17 -34z"/>
<path d="M2213 1243 c-26 -5 -26 -6 -13 -54 9 -32 13 -35 40 -31 16 2 30 8 30
13 0 5 -11 7 -25 3 -29 -7 -33 3 -7 22 16 12 15 13 -5 14 -13 0 -23 5 -23 10
0 6 9 10 20 10 11 0 20 5 20 10 0 6 -3 9 -7 9 -5 -1 -18 -4 -30 -6z"/>
<path d="M822 1228 c-18 -18 -15 -68 4 -75 37 -14 70 41 44 73 -15 17 -32 18
-48 2z m44 -23 c4 -8 0 -22 -7 -31 -11 -13 -14 -13 -27 0 -17 17 -9 46 13 46
9 0 18 -7 21 -15z"/>
<path d="M2110 1190 c0 -41 1 -41 33 -38 29 3 32 6 32 38 0 32 -3 35 -32 38
-32 3 -33 3 -33 -38z m49 16 c14 -16 4 -46 -15 -46 -9 0 -14 11 -14 30 0 32
11 38 29 16z"/>
<path d="M246 904 c-4 -9 -4 -19 -1 -22 3 -3 5 0 5 6 0 7 14 12 30 12 l30 0 0
-74 c0 -50 -4 -76 -12 -79 -7 -3 5 -5 27 -5 22 0 32 2 23 5 -15 4 -18 16 -18
80 l0 75 34 -4 c24 -3 32 0 29 9 -4 9 -27 13 -73 13 -54 0 -69 -3 -74 -16z"/>
<path d="M418 913 c8 -3 12 -30 12 -83 0 -53 -4 -80 -12 -83 -7 -3 3 -5 22 -5
19 0 29 2 23 5 -8 2 -13 22 -13 44 l0 39 50 0 c50 0 50 0 50 -33 0 -18 -5 -38
-12 -45 -9 -9 -4 -12 23 -11 18 0 28 3 22 6 -9 3 -13 30 -13 83 0 53 4 80 13
83 6 3 -4 6 -22 6 -27 1 -32 -2 -23 -11 7 -7 12 -23 12 -37 0 -24 -3 -26 -50
-26 -49 0 -50 0 -50 32 0 17 6 34 13 36 6 3 -4 5 -23 5 -19 0 -29 -2 -22 -5z"/>
<path d="M623 909 c19 -11 24 -99 7 -143 -9 -26 -9 -26 40 -26 40 0 50 3 50
17 0 13 -3 14 -12 5 -7 -7 -20 -12 -30 -12 -14 0 -18 8 -18 40 0 33 3 40 19
40 11 0 22 -6 24 -12 3 -7 6 -3 6 8 1 17 -4 20 -24 16 -22 -4 -25 -1 -25 28 0
28 3 31 27 28 15 -2 28 2 30 10 4 9 -11 12 -54 12 -44 -1 -54 -3 -40 -11z"/>
<path d="M828 913 c8 -3 12 -28 12 -72 0 -78 16 -101 68 -101 53 0 69 27 74
128 3 50 2 52 -22 51 -14 0 -19 -3 -12 -6 19 -7 16 -127 -4 -147 -20 -20 -48
-20 -68 0 -20 20 -23 140 -3 147 6 3 -4 5 -23 5 -19 0 -29 -2 -22 -5z"/>
<path d="M1028 830 l-3 -90 25 1 c14 0 19 3 13 6 -9 3 -13 27 -13 68 l0 63 70
-72 70 -71 0 87 c0 60 4 88 13 91 6 3 -4 6 -23 6 -19 0 -30 -3 -24 -7 6 -4 14
-36 17 -72 l5 -65 -69 73 c-38 39 -71 72 -73 72 -3 0 -6 -41 -8 -90z"/>
<path d="M1248 913 c16 -6 17 -144 0 -161 -9 -9 -4 -12 23 -11 18 0 28 3 22 6
-9 3 -13 30 -13 83 0 53 4 80 13 83 6 3 -4 5 -23 5 -19 0 -29 -2 -22 -5z"/>
<path d="M1321 910 c9 -5 31 -46 49 -90 18 -44 35 -78 39 -75 4 2 20 36 35 75
15 39 35 77 43 85 13 13 11 15 -12 15 -14 0 -24 -4 -21 -9 6 -9 -35 -131 -44
-131 -3 0 -15 28 -27 62 -16 47 -19 65 -10 70 7 4 -6 8 -28 8 -30 -1 -36 -3
-24 -10z"/>
<path d="M1518 913 c8 -3 12 -30 12 -83 0 -53 -4 -80 -12 -84 -7 -3 11 -4 41
-3 35 1 56 7 59 15 3 11 0 11 -16 1 -31 -19 -52 -5 -52 36 0 28 4 35 20 35 11
0 20 -4 20 -10 0 -5 5 -10 10 -10 6 0 10 8 10 18 0 15 -6 18 -30 14 -28 -4
-30 -2 -30 28 0 30 2 32 30 28 20 -3 30 0 30 9 0 9 -15 13 -52 12 -29 0 -47
-3 -40 -6z"/>
<path d="M1658 908 c17 -17 16 -155 0 -161 -7 -3 3 -5 22 -5 19 0 29 2 23 5
-7 2 -13 18 -13 34 0 22 5 29 20 29 11 0 20 -3 20 -8 0 -17 53 -62 73 -61 21
0 21 1 2 9 -11 4 -30 21 -42 38 -22 30 -22 32 -5 62 17 30 17 31 -7 51 -26 22
-115 29 -93 7z m63 -8 c22 -13 25 -52 4 -70 -22 -18 -35 -3 -35 41 0 42 2 44
31 29z"/>
<path d="M1847 913 c-17 -16 -5 -61 23 -88 34 -33 37 -68 6 -73 -11 -3 -26 4
-33 14 -12 17 -13 16 -13 -4 0 -18 6 -22 33 -22 66 0 77 52 22 104 -25 22 -34
37 -29 49 8 22 40 22 53 0 9 -16 10 -16 11 5 0 18 -5 22 -33 22 -19 0 -37 -3
-40 -7z"/>
<path d="M1967 908 c15 -19 16 -137 2 -154 -9 -12 -6 -14 22 -14 22 0 29 3 21
9 -10 6 -13 30 -10 90 3 80 3 81 -21 81 -17 0 -21 -3 -14 -12z"/>
<path d="M2040 907 c0 -9 10 -12 31 -9 l31 5 -4 -82 -3 -81 30 0 c17 0 25 4
18 8 -6 4 -13 39 -15 80 l-3 74 33 -4 c21 -3 32 0 32 9 0 10 -20 13 -75 13
-56 0 -75 -3 -75 -13z"/>
<path d="M2236 869 c35 -53 46 -113 22 -122 -7 -3 3 -5 22 -5 19 0 29 2 23 5
-30 12 -7 100 40 151 20 21 20 22 1 22 -13 0 -25 -14 -37 -45 -11 -25 -22 -43
-26 -41 -4 3 -16 23 -27 45 -11 24 -26 41 -36 41 -13 0 -10 -10 18 -51z"/>
<path d="M2487 909 c-28 -16 -49 -67 -42 -100 14 -64 99 -90 150 -46 62 54 27
157 -53 157 -21 0 -45 -5 -55 -11z m93 -19 c25 -25 27 -95 3 -122 -22 -24 -62
-23 -90 4 -48 45 -19 138 42 138 14 0 34 -9 45 -20z"/>
<path d="M2658 913 c8 -3 12 -30 12 -83 0 -53 -4 -80 -12 -83 -7 -3 3 -5 22
-5 19 0 29 2 23 5 -8 2 -13 22 -13 44 0 31 4 39 18 39 10 0 23 -5 30 -12 9 -9
12 -7 12 8 0 17 -5 20 -30 16 -28 -4 -30 -2 -30 28 0 30 2 32 30 28 18 -3 31
0 34 9 4 10 -8 13 -52 12 -31 0 -51 -3 -44 -6z"/>
<path d="M250 660 c0 -7 425 -10 1256 -10 834 0 1253 3 1249 10 -9 14 -2505
14 -2505 0z"/>
<path d="M306 579 c-2 -8 -9 -68 -15 -134 -8 -86 -15 -123 -26 -131 -12 -9 -7
-11 26 -11 25 0 36 3 28 8 -14 8 -14 48 -3 142 l6 47 46 -95 c25 -53 50 -94
54 -93 5 2 28 45 52 96 24 52 46 95 49 98 2 2 7 -39 10 -92 3 -53 8 -98 10
-100 2 -3 22 -7 43 -10 37 -5 38 -5 14 8 -23 13 -26 22 -39 146 -8 72 -18 132
-22 132 -5 0 -9 -4 -9 -9 0 -4 -23 -57 -51 -117 l-52 -109 -58 119 c-32 66
-60 113 -63 105z"/>
<path d="M1404 571 c-52 -24 -90 -93 -81 -148 29 -176 287 -154 287 25 0 57
-25 98 -75 122 -51 25 -78 25 -131 1z m128 -30 c28 -25 32 -35 36 -93 4 -58 2
-67 -23 -96 -22 -27 -34 -32 -69 -32 -50 0 -83 21 -102 66 -53 128 62 241 158
155z"/>
<path d="M2280 458 c0 -119 -2 -138 -17 -147 -13 -7 -6 -9 29 -9 46 0 46 0 27
19 -16 16 -19 34 -19 111 l0 91 110 -114 109 -114 1 137 c0 121 2 137 18 141
9 3 -5 5 -33 5 -27 0 -43 -2 -34 -5 21 -5 29 -45 29 -141 l0 -75 -73 79 c-40
43 -90 97 -110 119 l-36 40 -1 -137z"/>
<path d="M653 573 c15 -4 17 -19 17 -128 0 -101 -3 -126 -15 -133 -10 -5 11
-9 60 -10 72 -1 76 0 85 24 12 31 12 34 1 34 -5 0 -11 -9 -14 -21 -5 -17 -12
-20 -44 -17 l-38 3 0 60 0 60 30 -3 c17 -2 32 -8 33 -13 7 -18 22 -9 22 14 0
20 -4 22 -45 19 l-45 -4 0 51 0 51 39 0 c30 0 40 -4 43 -17 3 -13 6 -10 10 10
l5 27 -81 -1 c-44 -1 -73 -3 -63 -6z"/>
<path d="M873 573 c15 -4 17 -19 17 -128 0 -100 -3 -126 -15 -132 -9 -5 16 -9
65 -10 69 -2 81 0 90 17 16 30 12 47 -6 22 -16 -23 -77 -32 -89 -13 -8 14 -17
201 -10 222 3 10 14 20 23 22 9 3 -8 5 -38 5 -30 0 -47 -2 -37 -5z"/>
<path d="M1093 569 c15 -9 17 -26 17 -129 0 -101 -2 -120 -17 -128 -12 -7 6
-9 56 -8 67 2 76 4 97 29 31 37 30 59 -4 99 -26 30 -27 35 -15 58 18 34 16 47
-7 70 -16 16 -33 20 -82 20 -48 -1 -59 -3 -45 -11z m106 -31 c21 -36 2 -78
-34 -78 -24 0 -25 3 -25 56 0 51 2 55 22 52 12 -2 29 -15 37 -30z m8 -110 c26
-25 31 -79 9 -97 -8 -7 -27 -11 -43 -9 -27 3 -28 5 -31 66 -3 58 -2 62 19 62
13 0 33 -10 46 -22z"/>
<path d="M1662 573 c13 -3 17 -22 20 -109 3 -105 3 -106 36 -135 45 -40 99
-40 144 0 33 29 33 30 36 135 3 87 7 106 20 109 10 3 -5 5 -33 5 -27 0 -42 -2
-32 -5 9 -2 17 -12 18 -21 8 -196 -4 -232 -76 -232 -63 0 -75 24 -75 144 0 74
4 106 13 109 6 3 -10 5 -38 5 -27 0 -43 -2 -33 -5z"/>
<path d="M1978 570 c21 -9 22 -14 22 -124 0 -85 -4 -118 -14 -129 -12 -12 -7
-14 37 -14 40 -1 47 1 30 8 -20 7 -23 16 -23 59 0 46 2 50 25 50 17 0 32 -12
55 -45 38 -55 66 -75 105 -75 l30 1 -33 18 c-32 17 -106 98 -99 110 33 64 39
82 34 103 -9 34 -46 48 -125 47 -50 0 -61 -3 -44 -9z m125 -32 c36 -43 15 -98
-38 -98 l-35 0 0 66 0 66 28 -6 c15 -4 35 -16 45 -28z"/>
<path d="M2593 573 c15 -4 17 -19 17 -127 0 -67 -4 -126 -10 -132 -6 -6 16
-10 64 -12 69 -2 74 -1 80 20 10 38 6 44 -12 20 -14 -17 -26 -23 -48 -20 -28
3 -29 5 -32 64 l-3 60 35 -4 c22 -3 37 -10 39 -21 3 -9 5 -2 6 14 1 30 0 30
-39 27 l-40 -4 0 51 0 51 35 0 c26 0 35 -4 35 -17 0 -22 13 -8 15 17 2 19 -4
20 -79 19 -45 -1 -73 -3 -63 -6z"/>
</g>
</svg>
